<svg xmlns="http://www.w3.org/2000/svg" width="54" height="12" viewBox="0 0 54 12">
  <defs>
    <linearGradient id="arrow-left-a" x1="92.8%" x2="4.858%" y1="50%" y2="50%">
      <stop offset="0%" stop-color="#6171B4"/>
      <stop offset="52.586%" stop-color="#B74A95"/>
      <stop offset="100%" stop-color="#7C4997"/>
    </linearGradient>
  </defs>
  <path fill="url(#arrow-left-a)" fill-rule="evenodd" d="M42,7.38196601 L1.5,7.38196601 C0.671572875,7.38196601 -7.00397429e-15,6.71039314 -7.10542736e-15,5.88196601 C-7.20688042e-15,5.05353889 0.671572875,4.38196601 1.5,4.38196601 L42,4.38196601 L42,1 C42,0.44771525 42.4477153,-2.73114864e-14 43,-2.74225087e-14 C43.1552451,-2.74225087e-14 43.3083582,0.0361450918 43.4472136,0.105572809 L53.2111456,4.98753882 C53.7051241,5.23452807 53.9053485,5.83520111 53.6583592,6.32917961 C53.5615955,6.52270701 53.404673,6.6796295 53.2111456,6.7763932 L43.4472136,11.6583592 C42.9532351,11.9053485 42.3525621,11.7051241 42.1055728,11.2111456 C42.0361451,11.0722902 42,10.9191771 42,10.763932 L42,7.38196601 Z" transform="matrix(-1 0 0 1 53.764 0)"/>
</svg>
