<svg xmlns="http://www.w3.org/2000/svg" xmlns:xlink="http://www.w3.org/1999/xlink" viewBox="0 0 65.1 55.41"><defs><style>.cls-1,.cls-4{fill:none;}.cls-1,.cls-2,.cls-3,.cls-4,.cls-5,.cls-6{stroke-miterlimit:10;stroke-width:4px;}.cls-1{stroke:url(#Nieuwe_verloopstaal_2);}.cls-2,.cls-3,.cls-5,.cls-6{fill:#fff;}.cls-2{stroke:url(#Nieuwe_verloopstaal_2-2);}.cls-3{stroke:url(#Nieuwe_verloopstaal_2-3);}.cls-4{stroke:url(#Nieuwe_verloopstaal_2-4);}.cls-5{stroke:url(#Nieuwe_verloopstaal_2-5);}.cls-6{stroke:url(#Nieuwe_verloopstaal_2-6);}</style><linearGradient id="Nieuwe_verloopstaal_2" y1="33.39" x2="54.09" y2="33.39" gradientUnits="userSpaceOnUse"><stop offset="0" stop-color="#e54216"/><stop offset="0.47" stop-color="#e8620c"/><stop offset="1" stop-color="#f59b0b"/></linearGradient><linearGradient id="Nieuwe_verloopstaal_2-2" x1="12.83" y1="28.85" x2="24.26" y2="28.85" xlink:href="#Nieuwe_verloopstaal_2"/><linearGradient id="Nieuwe_verloopstaal_2-3" x1="12.83" y1="39.76" x2="41.26" y2="39.76" xlink:href="#Nieuwe_verloopstaal_2"/><linearGradient id="Nieuwe_verloopstaal_2-4" x1="21.31" y1="17.9" x2="65.1" y2="17.9" xlink:href="#Nieuwe_verloopstaal_2"/><linearGradient id="Nieuwe_verloopstaal_2-5" x1="31.91" y1="14.3" x2="54.5" y2="14.3" xlink:href="#Nieuwe_verloopstaal_2"/><linearGradient id="Nieuwe_verloopstaal_2-6" x1="31.91" y1="22.97" x2="54.5" y2="22.97" xlink:href="#Nieuwe_verloopstaal_2"/></defs><title>chat</title><g id="Laag_2" data-name="Laag 2"><g id="Laag_1-2" data-name="Laag 1"><g id="Icon"><path class="cls-1" d="M24.26,13.37H14a12,12,0,0,0-12,12v28H40.09a12,12,0,0,0,12-12V32.52"/><line class="cls-2" x1="24.26" y1="28.85" x2="12.83" y2="28.85"/><line class="cls-3" x1="41.26" y1="39.76" x2="12.83" y2="39.76"/><path class="cls-4" d="M33.26,2h19.9a9.95,9.95,0,0,1,9.95,9.95V33.81a0,0,0,0,1,0,0H33.26a9.95,9.95,0,0,1-9.95-9.95V11.95A9.95,9.95,0,0,1,33.26,2Z"/><line class="cls-5" x1="31.91" y1="14.3" x2="54.5" y2="14.3"/><line class="cls-6" x1="31.91" y1="22.97" x2="54.5" y2="22.97"/></g></g></g></svg>