<svg xmlns="http://www.w3.org/2000/svg" viewBox="0 0 65.1 55.41"><defs><style>.cls-1{fill:#fff;stroke:#2d2d2d;stroke-miterlimit:10;stroke-width:4px;}</style></defs><title>chat</title><g id="Laag_2" data-name="Laag 2"><g id="Laag_1-2" data-name="Laag 1"><path class="cls-1" d="M14,13.37H52.09a0,0,0,0,1,0,0v28a12,12,0,0,1-12,12H14a12,12,0,0,1-12-12v-16A12,12,0,0,1,14,13.37Z" transform="translate(54.09 66.78) rotate(180)"/><line class="cls-1" x1="41.26" y1="28.85" x2="12.83" y2="28.85"/><line class="cls-1" x1="41.26" y1="39.76" x2="12.83" y2="39.76"/><path class="cls-1" d="M33.26,2h19.9a9.95,9.95,0,0,1,9.95,9.95V33.81a0,0,0,0,1,0,0H33.26a9.95,9.95,0,0,1-9.95-9.95V11.95A9.95,9.95,0,0,1,33.26,2Z"/><line class="cls-1" x1="31.91" y1="14.3" x2="54.5" y2="14.3"/><line class="cls-1" x1="31.91" y1="22.97" x2="54.5" y2="22.97"/></g></g></svg>