<?xml version="1.0" encoding="utf-8"?>
<!-- Generator: Adobe Illustrator 19.0.0, SVG Export Plug-In . SVG Version: 6.00 Build 0)  -->
<svg version="1.1" id="Layer_1" xmlns="http://www.w3.org/2000/svg" xmlns:xlink="http://www.w3.org/1999/xlink" x="0px" y="0px"
	 viewBox="-933 2478 53 46" style="enable-background:new -933 2478 53 46;" xml:space="preserve">
<style type="text/css">
	.st0{fill:#FFFFFF;stroke:url(#SVGID_1_);stroke-width:3;}
	.st1{fill:none;stroke:url(#SVGID_2_);stroke-width:3;}
	.st2{fill:none;stroke:url(#SVGID_3_);stroke-width:3;}
	.st3{fill:#FFFFFF;stroke:url(#SVGID_4_);stroke-width:3;}
	.st4{fill:none;stroke:url(#SVGID_5_);stroke-width:3;}
</style>
<g transform="translate(2 2)">
	
		<linearGradient id="SVGID_1_" gradientUnits="userSpaceOnUse" x1="-1890.109" y1="5075.6299" x2="-1890.9884" y2="5075.6299" gradientTransform="matrix(-40.5 0 0 32.5235 -77479.5 -162573.7813)">
		<stop  offset="0" style="stop-color:#7C4997"/>
		<stop  offset="0.4741" style="stop-color:#B74A95"/>
		<stop  offset="1" style="stop-color:#6171B4"/>
	</linearGradient>
	<path class="st0" d="M-902.3,2519.5H-933v-22.6c0-5.4,4.2-9.9,9.5-9.9h7.5l13.5,16.5c6.7,0,10,0,10,0c0,1.3,0,3.4-0.1,6.3
		C-892.6,2515.2-896.9,2519.5-902.3,2519.5z"/>
	
		<linearGradient id="SVGID_2_" gradientUnits="userSpaceOnUse" x1="-1793.988" y1="2524" x2="-1794.8674" y2="2524" gradientTransform="matrix(12.7661 0 0 -1 21989.8633 5023.6865)">
		<stop  offset="0" style="stop-color:#7C4997"/>
		<stop  offset="0.4741" style="stop-color:#B74A95"/>
		<stop  offset="1" style="stop-color:#6171B4"/>
	</linearGradient>
	<path class="st1" d="M-911.5,2499.7h-12.8"/>
	
		<linearGradient id="SVGID_3_" gradientUnits="userSpaceOnUse" x1="-1826.3784" y1="2524" x2="-1827.2578" y2="2524" gradientTransform="matrix(22.9274 0 0 -1 40971.1563 5032.4985)">
		<stop  offset="0" style="stop-color:#7C4997"/>
		<stop  offset="0.4741" style="stop-color:#B74A95"/>
		<stop  offset="1" style="stop-color:#6171B4"/>
	</linearGradient>
	<path class="st2" d="M-901.3,2508.5h-22.9"/>
	
		<linearGradient id="SVGID_4_" gradientUnits="userSpaceOnUse" x1="-1838.0037" y1="4903.1304" x2="-1838.8831" y2="4903.1304" gradientTransform="matrix(32.0968 0 0 -25.6927 58107.9531 128465.4609)">
		<stop  offset="0" style="stop-color:#7C4997"/>
		<stop  offset="0.4741" style="stop-color:#B74A95"/>
		<stop  offset="1" style="stop-color:#6171B4"/>
	</linearGradient>
	<path class="st3" d="M-907.8,2478h16c4.4,0,8,3.6,8,8v17.7h-24.1c-4.4,0-8-3.6-8-8v-9.6C-915.8,2481.6-912.2,2478-907.8,2478z"/>
	
		<linearGradient id="SVGID_5_" gradientUnits="userSpaceOnUse" x1="-1815.8582" y1="4645.9219" x2="-1816.7377" y2="4645.9219" gradientTransform="matrix(18.2177 0 0 -7.0027 32188.8652 35025.3945)">
		<stop  offset="0" style="stop-color:#7C4997"/>
		<stop  offset="0.4741" style="stop-color:#B74A95"/>
		<stop  offset="1" style="stop-color:#6171B4"/>
	</linearGradient>
	<path class="st4" d="M-908.9,2487.9h18.2 M-908.9,2494.9h18.2"/>
</g>
</svg>
