<svg xmlns="http://www.w3.org/2000/svg" width="54" height="48" viewBox="0 0 54 48">
  <defs>
    <linearGradient id="festival-a" x1="92.8%" x2="4.858%" y1="50%" y2="50%">
      <stop offset="0%" stop-color="#7C4997"/>
      <stop offset="47.414%" stop-color="#B74A95"/>
      <stop offset="100%" stop-color="#6171B4"/>
    </linearGradient>
    <linearGradient id="festival-b" x1="92.8%" x2="4.858%" y1="50%" y2="50%">
      <stop offset="0%" stop-color="#7C4997"/>
      <stop offset="47.414%" stop-color="#B74A95"/>
      <stop offset="100%" stop-color="#6171B4"/>
    </linearGradient>
  </defs>
  <g fill="none" stroke-width="3" transform="translate(3 3)">
    <path stroke="url(#festival-a)" d="M15.5003846,15 L22.7115302,0.577708764 C23.2055087,-0.410248231 24.4068548,-0.810696924 25.3948118,-0.316718427 C25.7818666,-0.123191025 26.0957116,0.190653959 26.289239,0.577708764 L33.5003846,15 L33.6782692,15 L36.863658,8.59844576 C37.3557338,7.60953973 38.5563069,7.20677928 39.5452129,7.69885512 C39.9349982,7.89281079 40.2508479,8.20866046 40.4448035,8.59844576 L45.1772276,18.1090179 C45.6693035,19.0979239 45.266543,20.2984969 44.277637,20.7905728 C44.1571696,20.8505169 44.0313678,20.8979506 43.9022059,20.9324097 L48.4185334,40.0399491 C48.4541666,40.1907049 48.4721642,40.3450902 48.4721642,40.5 C48.4721642,41.6045695 47.5767337,42.5 46.4721642,42.5 L2.5278358,42.5 C2.37292601,42.5 2.21854072,42.4820024 2.0677849,42.4463692 C0.992834855,42.1922901 0.327387478,41.1148991 0.581466578,40.0399491 L5.09772581,20.9326985 C4.24343994,20.7050294 3.61411436,19.9260081 3.61411436,19 C3.61411436,18.6908104 3.68580039,18.3858311 3.82354159,18.1090179 L8.55596569,8.59844576 C9.04804153,7.60953973 10.2486146,7.20677928 11.2375206,7.69885512 C11.6273059,7.89281079 11.9431556,8.20866046 12.1371112,8.59844576 L15.3225,15 L15.5003846,15 Z"/>
    <path stroke="url(#festival-b)" d="M12.9445902,20.7186 L2.98360656,13.0578 C0.69421981,11.4493859 -0.408894782,8.65604991 0.175035465,5.94586179 C0.758965712,3.23567367 2.91869802,1.12494314 5.67379487,0.571862772 C8.42889172,0.0187824013 11.254488,1.12871784 12.8678689,3.3978 C14.4787628,1.12037647 17.3085078,0.00330346904 20.0695462,0.554858511 C22.8305845,1.10641355 24.9954233,3.2212227 25.5790428,5.9370302 C26.1626622,8.6528377 25.0535626,11.4507918 22.7563934,13.0578 L12.9445902,20.7186 Z" transform="translate(11.485 18)"/>
  </g>
</svg>
