<svg xmlns="http://www.w3.org/2000/svg" xmlns:xlink="http://www.w3.org/1999/xlink" viewBox="0 0 56.54 36.59"><defs><style>.cls-1,.cls-2,.cls-3{fill-rule:evenodd;}.cls-1{fill:url(#Nieuwe_verloopstaal_2);}.cls-2{fill:url(#Nieuwe_verloopstaal_2-2);}.cls-3{fill:url(#Nieuwe_verloopstaal_2-3);}</style><linearGradient id="Nieuwe_verloopstaal_2" y1="6.1" x2="56.54" y2="6.1" gradientUnits="userSpaceOnUse"><stop offset="0" stop-color="#e54216"/><stop offset="0.47" stop-color="#e8620c"/><stop offset="1" stop-color="#f59b0b"/></linearGradient><linearGradient id="Nieuwe_verloopstaal_2-2" y1="18.29" x2="56.54" y2="18.29" xlink:href="#Nieuwe_verloopstaal_2"/><linearGradient id="Nieuwe_verloopstaal_2-3" y1="30.49" x2="56.54" y2="30.49" xlink:href="#Nieuwe_verloopstaal_2"/></defs><title>filter</title><g id="Laag_2" data-name="Laag 2"><g id="Laag_1-2" data-name="Laag 1"><g id="Icon"><path class="cls-1" d="M12,4.43H54.88a1.67,1.67,0,0,1,0,3.33H12a6.1,6.1,0,1,1,0-3.33Z"/><path class="cls-2" d="M44.58,16.63H1.66a1.67,1.67,0,0,0,0,3.33H44.58a6.1,6.1,0,1,0,0-3.33Z"/><path class="cls-3" d="M37.47,32.15H54.88a1.66,1.66,0,0,0,0-3.32H37.47a6.1,6.1,0,0,0-11.74,0H1.66a1.66,1.66,0,0,0,0,3.32H25.73a6.1,6.1,0,0,0,11.74,0Z"/></g></g></g></svg>