<svg xmlns="http://www.w3.org/2000/svg" xmlns:xlink="http://www.w3.org/1999/xlink" viewBox="0 0 65.38 65.16"><defs><style>.cls-1{fill:url(#Nieuw_verloopstaal_1);}.cls-2{fill:none;stroke-miterlimit:10;stroke-width:4px;stroke:url(#Nieuwe_verloopstaal_2);}.cls-3{clip-path:url(#clip-path);}.cls-4{fill:url(#Nieuw_verloopstaal_1-3);}.cls-5{fill:url(#Nieuw_verloopstaal_1-4);}.cls-6{fill:url(#Nieuw_verloopstaal_1-5);}.cls-7{fill:url(#Nieuw_verloopstaal_1-6);}.cls-8{fill:url(#Nieuw_verloopstaal_1-7);}.cls-9{fill:url(#Nieuw_verloopstaal_1-8);}.cls-10{fill:url(#Nieuw_verloopstaal_1-9);}.cls-11{fill:url(#Nieuw_verloopstaal_1-10);}.cls-12{fill:url(#Nieuw_verloopstaal_1-11);}.cls-13{fill:url(#Nieuw_verloopstaal_1-12);}.cls-14{fill:url(#Nieuw_verloopstaal_1-13);}.cls-15{fill:url(#Nieuw_verloopstaal_1-14);}.cls-16{fill:url(#Nieuw_verloopstaal_1-15);}.cls-17{fill:url(#Nieuw_verloopstaal_1-16);}.cls-18{fill:url(#Nieuw_verloopstaal_1-17);}.cls-19{fill:url(#Nieuw_verloopstaal_1-18);}.cls-20{fill:url(#Nieuw_verloopstaal_1-19);}.cls-21{fill:url(#Nieuw_verloopstaal_1-20);}.cls-22{fill:url(#Nieuw_verloopstaal_1-21);}.cls-23{fill:url(#Nieuw_verloopstaal_1-22);}.cls-24{fill:url(#Nieuw_verloopstaal_1-23);}.cls-25{fill:url(#Nieuw_verloopstaal_1-24);}.cls-26{fill:url(#Nieuw_verloopstaal_1-25);}.cls-27{fill:url(#Nieuw_verloopstaal_1-26);}.cls-28{fill:url(#Nieuw_verloopstaal_1-27);}.cls-29{fill:url(#Nieuw_verloopstaal_1-28);}.cls-30{fill:url(#Nieuw_verloopstaal_1-29);}.cls-31{fill:url(#Nieuw_verloopstaal_1-30);}.cls-32{fill:url(#Nieuw_verloopstaal_1-31);}.cls-33{fill:url(#Nieuw_verloopstaal_1-32);}.cls-34{fill:url(#Nieuw_verloopstaal_1-33);}.cls-35{fill:url(#Nieuw_verloopstaal_1-34);}.cls-36{fill:url(#Nieuw_verloopstaal_1-35);}.cls-37{fill:url(#Nieuw_verloopstaal_1-36);}.cls-38{fill:url(#Nieuw_verloopstaal_1-37);}.cls-39{fill:url(#Nieuw_verloopstaal_1-38);}.cls-40{fill:url(#Nieuw_verloopstaal_1-39);}.cls-41{fill:url(#Nieuw_verloopstaal_1-40);}.cls-42{fill:url(#Nieuw_verloopstaal_1-41);}.cls-43{fill:url(#Nieuw_verloopstaal_1-42);}.cls-44{fill:url(#Nieuw_verloopstaal_1-43);}.cls-45{fill:url(#Nieuw_verloopstaal_1-44);}.cls-46{fill:url(#Nieuw_verloopstaal_1-45);}.cls-47{fill:url(#Nieuw_verloopstaal_1-46);}.cls-48{fill:url(#Nieuw_verloopstaal_1-47);}.cls-49{fill:url(#Nieuw_verloopstaal_1-48);}.cls-50{fill:url(#Nieuw_verloopstaal_1-49);}.cls-51{fill:url(#Nieuw_verloopstaal_1-50);}.cls-52{fill:url(#Nieuw_verloopstaal_1-51);}.cls-53{fill:url(#Nieuw_verloopstaal_1-52);}.cls-54{fill:url(#Nieuw_verloopstaal_1-53);}.cls-55{fill:url(#Nieuw_verloopstaal_1-54);}.cls-56{fill:url(#Nieuw_verloopstaal_1-55);}.cls-57{fill:url(#Nieuw_verloopstaal_1-56);}.cls-58{fill:url(#Nieuw_verloopstaal_1-57);}.cls-59{fill:url(#Nieuw_verloopstaal_1-58);}.cls-60{fill:url(#Nieuw_verloopstaal_1-59);}.cls-61{fill:url(#Nieuw_verloopstaal_1-60);}.cls-62{fill:url(#Nieuw_verloopstaal_1-61);}.cls-63{fill:url(#Nieuw_verloopstaal_1-62);}.cls-64{fill:url(#Nieuw_verloopstaal_1-63);}.cls-65{fill:url(#Nieuw_verloopstaal_1-64);}.cls-66{fill:url(#Nieuw_verloopstaal_1-65);}.cls-67{fill:url(#Nieuw_verloopstaal_1-66);}.cls-68{fill:url(#Nieuw_verloopstaal_1-67);}.cls-69{fill:url(#Nieuw_verloopstaal_1-68);}.cls-70{fill:url(#Nieuw_verloopstaal_1-69);}.cls-71{fill:url(#Nieuw_verloopstaal_1-70);}.cls-72{fill:url(#Nieuw_verloopstaal_1-71);}.cls-73{fill:url(#Nieuw_verloopstaal_1-72);}.cls-74{fill:url(#Nieuw_verloopstaal_1-73);}.cls-75{fill:url(#Nieuw_verloopstaal_1-74);}.cls-76{fill:url(#Nieuw_verloopstaal_1-75);}.cls-77{fill:url(#Nieuw_verloopstaal_1-76);}.cls-78{fill:url(#Nieuw_verloopstaal_1-77);}.cls-79{fill:url(#Nieuw_verloopstaal_1-78);}.cls-80{fill:url(#Nieuw_verloopstaal_1-79);}.cls-81{fill:url(#Nieuw_verloopstaal_1-80);}.cls-82{fill:url(#Nieuw_verloopstaal_1-81);}.cls-83{fill:url(#Nieuw_verloopstaal_1-82);}.cls-84{fill:url(#Nieuw_verloopstaal_1-83);}.cls-85{fill:url(#Nieuw_verloopstaal_1-84);}.cls-86{fill:url(#Nieuw_verloopstaal_1-85);}.cls-87{fill:url(#Nieuw_verloopstaal_1-86);}.cls-88{fill:url(#Nieuw_verloopstaal_1-87);}.cls-89{fill:url(#Nieuw_verloopstaal_1-88);}.cls-90{fill:url(#Nieuw_verloopstaal_1-89);}.cls-91{fill:url(#Nieuw_verloopstaal_1-90);}.cls-92{fill:url(#Nieuw_verloopstaal_1-91);}.cls-93{fill:url(#Nieuw_verloopstaal_1-92);}.cls-94{fill:url(#Nieuw_verloopstaal_1-93);}.cls-95{fill:url(#Nieuw_verloopstaal_1-94);}.cls-96{fill:url(#Nieuw_verloopstaal_1-95);}.cls-97{fill:url(#Nieuw_verloopstaal_1-96);}.cls-98{fill:url(#Nieuw_verloopstaal_1-97);}.cls-99{fill:url(#Nieuw_verloopstaal_1-98);}.cls-100{fill:url(#Nieuw_verloopstaal_1-99);}.cls-101{fill:url(#Nieuw_verloopstaal_1-100);}.cls-102{fill:url(#Nieuw_verloopstaal_1-101);}.cls-103{fill:url(#Nieuw_verloopstaal_1-102);}.cls-104{fill:url(#Nieuw_verloopstaal_1-103);}.cls-105{fill:url(#Nieuw_verloopstaal_1-104);}.cls-106{fill:url(#Nieuw_verloopstaal_1-105);}.cls-107{fill:url(#Nieuw_verloopstaal_1-106);}.cls-108{fill:url(#Nieuw_verloopstaal_1-107);}.cls-109{fill:url(#Nieuw_verloopstaal_1-108);}.cls-110{fill:url(#Nieuw_verloopstaal_1-109);}.cls-111{fill:url(#Nieuw_verloopstaal_1-110);}.cls-112{fill:url(#Nieuw_verloopstaal_1-111);}.cls-113{fill:url(#Nieuw_verloopstaal_1-112);}.cls-114{fill:url(#Nieuw_verloopstaal_1-113);}.cls-115{fill:url(#Nieuw_verloopstaal_1-114);}.cls-116{fill:url(#Nieuw_verloopstaal_1-115);}.cls-117{fill:url(#Nieuw_verloopstaal_1-116);}.cls-118{fill:url(#Nieuw_verloopstaal_1-117);}.cls-119{fill:url(#Nieuw_verloopstaal_1-118);}.cls-120{fill:url(#Nieuw_verloopstaal_1-119);}.cls-121{fill:url(#Nieuw_verloopstaal_1-120);}.cls-122{fill:url(#Nieuw_verloopstaal_1-121);}.cls-123{fill:url(#Nieuw_verloopstaal_1-122);}.cls-124{fill:url(#Nieuw_verloopstaal_1-123);}.cls-125{fill:url(#Nieuw_verloopstaal_1-124);}.cls-126{fill:url(#Nieuw_verloopstaal_1-125);}.cls-127{fill:url(#Nieuw_verloopstaal_1-126);}.cls-128{fill:url(#Nieuw_verloopstaal_1-127);}.cls-129{fill:url(#Nieuw_verloopstaal_1-128);}.cls-130{fill:url(#Nieuw_verloopstaal_1-129);}.cls-131{fill:url(#Nieuw_verloopstaal_1-130);}.cls-132{fill:url(#Nieuw_verloopstaal_1-131);}.cls-133{fill:url(#Nieuw_verloopstaal_1-132);}.cls-134{fill:url(#Nieuw_verloopstaal_1-133);}.cls-135{fill:url(#Nieuw_verloopstaal_1-134);}.cls-136{fill:url(#Nieuw_verloopstaal_1-135);}.cls-137{fill:url(#Nieuw_verloopstaal_1-136);}.cls-138{fill:url(#Nieuw_verloopstaal_1-137);}.cls-139{fill:url(#Nieuw_verloopstaal_1-138);}.cls-140{fill:url(#Nieuw_verloopstaal_1-139);}.cls-141{fill:url(#Nieuw_verloopstaal_1-140);}.cls-142{fill:url(#Nieuw_verloopstaal_1-141);}.cls-143{fill:url(#Nieuw_verloopstaal_1-142);}.cls-144{fill:url(#Nieuw_verloopstaal_1-143);}.cls-145{fill:url(#Nieuw_verloopstaal_1-144);}.cls-146{fill:url(#Nieuw_verloopstaal_1-145);}.cls-147{fill:url(#Nieuw_verloopstaal_1-146);}.cls-148{fill:url(#Nieuw_verloopstaal_1-147);}.cls-149{fill:url(#Nieuw_verloopstaal_1-148);}.cls-150{fill:url(#Nieuw_verloopstaal_1-149);}.cls-151{fill:url(#Nieuw_verloopstaal_1-150);}.cls-152{fill:url(#Nieuw_verloopstaal_1-151);}.cls-153{fill:url(#Nieuw_verloopstaal_1-152);}.cls-154{fill:url(#Nieuw_verloopstaal_1-153);}.cls-155{fill:url(#Nieuw_verloopstaal_1-154);}.cls-156{fill:url(#Nieuw_verloopstaal_1-155);}.cls-157{fill:url(#Nieuw_verloopstaal_1-156);}.cls-158{fill:url(#Nieuw_verloopstaal_1-157);}.cls-159{fill:url(#Nieuw_verloopstaal_1-158);}.cls-160{fill:url(#Nieuw_verloopstaal_1-159);}.cls-161{fill:url(#Nieuw_verloopstaal_1-160);}.cls-162{fill:url(#Nieuw_verloopstaal_1-161);}.cls-163{fill:url(#Nieuw_verloopstaal_1-162);}.cls-164{fill:url(#Nieuw_verloopstaal_1-163);}.cls-165{fill:url(#Nieuw_verloopstaal_1-164);}.cls-166{fill:url(#Nieuw_verloopstaal_1-165);}.cls-167{fill:url(#Nieuw_verloopstaal_1-166);}.cls-168{fill:url(#Nieuw_verloopstaal_1-167);}.cls-169{fill:url(#Nieuw_verloopstaal_1-168);}.cls-170{fill:url(#Nieuw_verloopstaal_1-169);}.cls-171{fill:url(#Nieuw_verloopstaal_1-170);}.cls-172{fill:url(#Nieuw_verloopstaal_1-171);}.cls-173{fill:url(#Nieuw_verloopstaal_1-172);}.cls-174{fill:url(#Nieuw_verloopstaal_1-173);}.cls-175{fill:url(#Nieuw_verloopstaal_1-174);}.cls-176{fill:url(#Nieuw_verloopstaal_1-175);}.cls-177{fill:url(#Nieuw_verloopstaal_1-176);}.cls-178{fill:url(#Nieuw_verloopstaal_1-177);}.cls-179{fill:url(#Nieuw_verloopstaal_1-178);}.cls-180{fill:url(#Nieuw_verloopstaal_1-179);}.cls-181{fill:url(#Nieuw_verloopstaal_1-180);}.cls-182{fill:url(#Nieuwe_verloopstaal_2-2);}</style><linearGradient id="Nieuw_verloopstaal_1" x1="2.5" y1="32.58" x2="62.88" y2="32.58" gradientUnits="userSpaceOnUse"><stop offset="0" stop-color="#7d4a98"/><stop offset="0.47" stop-color="#b74b96"/><stop offset="1" stop-color="#6171b5"/></linearGradient><linearGradient id="Nieuwe_verloopstaal_2" x1="0.5" y1="32.58" x2="64.88" y2="32.58" gradientUnits="userSpaceOnUse"><stop offset="0" stop-color="#e54216"/><stop offset="0.47" stop-color="#e8620c"/><stop offset="1" stop-color="#f59b0b"/></linearGradient><clipPath id="clip-path"><line class="cls-1" x1="2.5" y1="62.66" x2="62.88" y2="2.5"/></clipPath><linearGradient id="Nieuw_verloopstaal_1-3" x1="2.5" y1="32.58" x2="2.5" y2="32.58" xlink:href="#Nieuw_verloopstaal_1"/><linearGradient id="Nieuw_verloopstaal_1-4" x1="2.5" y1="32.58" x2="2.87" y2="32.58" xlink:href="#Nieuw_verloopstaal_1"/><linearGradient id="Nieuw_verloopstaal_1-5" x1="2.87" y1="32.58" x2="3.23" y2="32.58" xlink:href="#Nieuw_verloopstaal_1"/><linearGradient id="Nieuw_verloopstaal_1-6" x1="3.23" y1="32.58" x2="3.6" y2="32.58" xlink:href="#Nieuw_verloopstaal_1"/><linearGradient id="Nieuw_verloopstaal_1-7" x1="3.6" y1="32.58" x2="3.97" y2="32.58" xlink:href="#Nieuw_verloopstaal_1"/><linearGradient id="Nieuw_verloopstaal_1-8" x1="3.97" y1="32.58" x2="4.34" y2="32.58" xlink:href="#Nieuw_verloopstaal_1"/><linearGradient id="Nieuw_verloopstaal_1-9" x1="4.34" y1="32.58" x2="4.7" y2="32.58" xlink:href="#Nieuw_verloopstaal_1"/><linearGradient id="Nieuw_verloopstaal_1-10" x1="4.7" y1="32.58" x2="5.07" y2="32.58" xlink:href="#Nieuw_verloopstaal_1"/><linearGradient id="Nieuw_verloopstaal_1-11" x1="5.07" y1="32.58" x2="5.44" y2="32.58" xlink:href="#Nieuw_verloopstaal_1"/><linearGradient id="Nieuw_verloopstaal_1-12" x1="5.44" y1="32.58" x2="5.8" y2="32.58" xlink:href="#Nieuw_verloopstaal_1"/><linearGradient id="Nieuw_verloopstaal_1-13" x1="5.8" y1="32.58" x2="6.17" y2="32.58" xlink:href="#Nieuw_verloopstaal_1"/><linearGradient id="Nieuw_verloopstaal_1-14" x1="6.17" y1="32.58" x2="6.54" y2="32.58" xlink:href="#Nieuw_verloopstaal_1"/><linearGradient id="Nieuw_verloopstaal_1-15" x1="6.54" y1="32.58" x2="6.9" y2="32.58" xlink:href="#Nieuw_verloopstaal_1"/><linearGradient id="Nieuw_verloopstaal_1-16" x1="6.9" y1="32.58" x2="7.27" y2="32.58" xlink:href="#Nieuw_verloopstaal_1"/><linearGradient id="Nieuw_verloopstaal_1-17" x1="7.27" y1="32.58" x2="7.64" y2="32.58" xlink:href="#Nieuw_verloopstaal_1"/><linearGradient id="Nieuw_verloopstaal_1-18" x1="7.64" y1="32.58" x2="8.01" y2="32.58" xlink:href="#Nieuw_verloopstaal_1"/><linearGradient id="Nieuw_verloopstaal_1-19" x1="8.01" y1="32.58" x2="8.37" y2="32.58" xlink:href="#Nieuw_verloopstaal_1"/><linearGradient id="Nieuw_verloopstaal_1-20" x1="8.37" y1="32.58" x2="8.74" y2="32.58" xlink:href="#Nieuw_verloopstaal_1"/><linearGradient id="Nieuw_verloopstaal_1-21" x1="8.74" y1="32.58" x2="9.11" y2="32.58" xlink:href="#Nieuw_verloopstaal_1"/><linearGradient id="Nieuw_verloopstaal_1-22" x1="9.11" y1="32.58" x2="9.47" y2="32.58" xlink:href="#Nieuw_verloopstaal_1"/><linearGradient id="Nieuw_verloopstaal_1-23" x1="9.47" y1="32.58" x2="9.84" y2="32.58" xlink:href="#Nieuw_verloopstaal_1"/><linearGradient id="Nieuw_verloopstaal_1-24" x1="9.84" y1="32.58" x2="10.21" y2="32.58" xlink:href="#Nieuw_verloopstaal_1"/><linearGradient id="Nieuw_verloopstaal_1-25" x1="10.21" y1="32.58" x2="10.57" y2="32.58" xlink:href="#Nieuw_verloopstaal_1"/><linearGradient id="Nieuw_verloopstaal_1-26" x1="10.57" y1="32.58" x2="10.94" y2="32.58" xlink:href="#Nieuw_verloopstaal_1"/><linearGradient id="Nieuw_verloopstaal_1-27" x1="10.94" y1="32.58" x2="11.31" y2="32.58" xlink:href="#Nieuw_verloopstaal_1"/><linearGradient id="Nieuw_verloopstaal_1-28" x1="11.31" y1="32.58" x2="11.68" y2="32.58" xlink:href="#Nieuw_verloopstaal_1"/><linearGradient id="Nieuw_verloopstaal_1-29" x1="11.68" y1="32.58" x2="12.04" y2="32.58" xlink:href="#Nieuw_verloopstaal_1"/><linearGradient id="Nieuw_verloopstaal_1-30" x1="12.04" y1="32.58" x2="12.41" y2="32.58" xlink:href="#Nieuw_verloopstaal_1"/><linearGradient id="Nieuw_verloopstaal_1-31" x1="12.41" y1="32.58" x2="12.78" y2="32.58" xlink:href="#Nieuw_verloopstaal_1"/><linearGradient id="Nieuw_verloopstaal_1-32" x1="12.78" y1="32.58" x2="13.14" y2="32.58" xlink:href="#Nieuw_verloopstaal_1"/><linearGradient id="Nieuw_verloopstaal_1-33" x1="13.14" y1="32.58" x2="13.51" y2="32.58" xlink:href="#Nieuw_verloopstaal_1"/><linearGradient id="Nieuw_verloopstaal_1-34" x1="13.51" y1="32.58" x2="13.88" y2="32.58" xlink:href="#Nieuw_verloopstaal_1"/><linearGradient id="Nieuw_verloopstaal_1-35" x1="13.88" y1="32.58" x2="14.24" y2="32.58" xlink:href="#Nieuw_verloopstaal_1"/><linearGradient id="Nieuw_verloopstaal_1-36" x1="14.24" y1="32.58" x2="14.61" y2="32.58" xlink:href="#Nieuw_verloopstaal_1"/><linearGradient id="Nieuw_verloopstaal_1-37" x1="14.61" y1="32.58" x2="14.98" y2="32.58" xlink:href="#Nieuw_verloopstaal_1"/><linearGradient id="Nieuw_verloopstaal_1-38" x1="14.98" y1="32.58" x2="15.35" y2="32.58" xlink:href="#Nieuw_verloopstaal_1"/><linearGradient id="Nieuw_verloopstaal_1-39" x1="15.35" y1="32.58" x2="15.71" y2="32.58" xlink:href="#Nieuw_verloopstaal_1"/><linearGradient id="Nieuw_verloopstaal_1-40" x1="15.71" y1="32.58" x2="16.08" y2="32.58" xlink:href="#Nieuw_verloopstaal_1"/><linearGradient id="Nieuw_verloopstaal_1-41" x1="16.08" y1="32.58" x2="16.45" y2="32.58" xlink:href="#Nieuw_verloopstaal_1"/><linearGradient id="Nieuw_verloopstaal_1-42" x1="16.45" y1="32.58" x2="16.81" y2="32.58" xlink:href="#Nieuw_verloopstaal_1"/><linearGradient id="Nieuw_verloopstaal_1-43" x1="16.81" y1="32.58" x2="17.18" y2="32.58" xlink:href="#Nieuw_verloopstaal_1"/><linearGradient id="Nieuw_verloopstaal_1-44" x1="17.18" y1="32.58" x2="17.55" y2="32.58" xlink:href="#Nieuw_verloopstaal_1"/><linearGradient id="Nieuw_verloopstaal_1-45" x1="17.55" y1="32.58" x2="17.92" y2="32.58" xlink:href="#Nieuw_verloopstaal_1"/><linearGradient id="Nieuw_verloopstaal_1-46" x1="17.92" y1="32.58" x2="18.28" y2="32.58" xlink:href="#Nieuw_verloopstaal_1"/><linearGradient id="Nieuw_verloopstaal_1-47" x1="18.28" y1="32.58" x2="18.65" y2="32.58" xlink:href="#Nieuw_verloopstaal_1"/><linearGradient id="Nieuw_verloopstaal_1-48" x1="18.65" y1="32.58" x2="19.02" y2="32.58" xlink:href="#Nieuw_verloopstaal_1"/><linearGradient id="Nieuw_verloopstaal_1-49" x1="19.02" y1="32.58" x2="19.38" y2="32.58" xlink:href="#Nieuw_verloopstaal_1"/><linearGradient id="Nieuw_verloopstaal_1-50" x1="19.38" y1="32.58" x2="19.75" y2="32.58" xlink:href="#Nieuw_verloopstaal_1"/><linearGradient id="Nieuw_verloopstaal_1-51" x1="19.75" y1="32.58" x2="20.12" y2="32.58" xlink:href="#Nieuw_verloopstaal_1"/><linearGradient id="Nieuw_verloopstaal_1-52" x1="20.12" y1="32.58" x2="20.48" y2="32.58" xlink:href="#Nieuw_verloopstaal_1"/><linearGradient id="Nieuw_verloopstaal_1-53" x1="20.48" y1="32.58" x2="20.85" y2="32.58" xlink:href="#Nieuw_verloopstaal_1"/><linearGradient id="Nieuw_verloopstaal_1-54" x1="20.85" y1="32.58" x2="21.22" y2="32.58" xlink:href="#Nieuw_verloopstaal_1"/><linearGradient id="Nieuw_verloopstaal_1-55" x1="21.22" y1="32.58" x2="21.59" y2="32.58" xlink:href="#Nieuw_verloopstaal_1"/><linearGradient id="Nieuw_verloopstaal_1-56" x1="21.59" y1="32.58" x2="21.95" y2="32.58" xlink:href="#Nieuw_verloopstaal_1"/><linearGradient id="Nieuw_verloopstaal_1-57" x1="21.95" y1="32.58" x2="22.32" y2="32.58" xlink:href="#Nieuw_verloopstaal_1"/><linearGradient id="Nieuw_verloopstaal_1-58" x1="22.32" y1="32.58" x2="22.69" y2="32.58" xlink:href="#Nieuw_verloopstaal_1"/><linearGradient id="Nieuw_verloopstaal_1-59" x1="22.69" y1="32.58" x2="23.05" y2="32.58" xlink:href="#Nieuw_verloopstaal_1"/><linearGradient id="Nieuw_verloopstaal_1-60" x1="23.05" y1="32.58" x2="23.42" y2="32.58" xlink:href="#Nieuw_verloopstaal_1"/><linearGradient id="Nieuw_verloopstaal_1-61" x1="23.42" y1="32.58" x2="23.79" y2="32.58" xlink:href="#Nieuw_verloopstaal_1"/><linearGradient id="Nieuw_verloopstaal_1-62" x1="23.79" y1="32.58" x2="24.15" y2="32.58" xlink:href="#Nieuw_verloopstaal_1"/><linearGradient id="Nieuw_verloopstaal_1-63" x1="24.15" y1="32.58" x2="24.52" y2="32.58" xlink:href="#Nieuw_verloopstaal_1"/><linearGradient id="Nieuw_verloopstaal_1-64" x1="24.52" y1="32.58" x2="24.89" y2="32.58" xlink:href="#Nieuw_verloopstaal_1"/><linearGradient id="Nieuw_verloopstaal_1-65" x1="24.89" y1="32.58" x2="25.26" y2="32.58" xlink:href="#Nieuw_verloopstaal_1"/><linearGradient id="Nieuw_verloopstaal_1-66" x1="25.26" y1="32.58" x2="25.62" y2="32.58" xlink:href="#Nieuw_verloopstaal_1"/><linearGradient id="Nieuw_verloopstaal_1-67" x1="25.62" y1="32.58" x2="25.99" y2="32.58" xlink:href="#Nieuw_verloopstaal_1"/><linearGradient id="Nieuw_verloopstaal_1-68" x1="25.99" y1="32.58" x2="26.36" y2="32.58" xlink:href="#Nieuw_verloopstaal_1"/><linearGradient id="Nieuw_verloopstaal_1-69" x1="26.36" y1="32.58" x2="26.72" y2="32.58" xlink:href="#Nieuw_verloopstaal_1"/><linearGradient id="Nieuw_verloopstaal_1-70" x1="26.72" y1="32.58" x2="27.09" y2="32.58" xlink:href="#Nieuw_verloopstaal_1"/><linearGradient id="Nieuw_verloopstaal_1-71" x1="27.09" y1="32.58" x2="27.46" y2="32.58" xlink:href="#Nieuw_verloopstaal_1"/><linearGradient id="Nieuw_verloopstaal_1-72" x1="27.46" y1="32.58" x2="27.82" y2="32.58" xlink:href="#Nieuw_verloopstaal_1"/><linearGradient id="Nieuw_verloopstaal_1-73" x1="27.82" y1="32.58" x2="28.19" y2="32.58" xlink:href="#Nieuw_verloopstaal_1"/><linearGradient id="Nieuw_verloopstaal_1-74" x1="28.19" y1="32.58" x2="28.56" y2="32.58" xlink:href="#Nieuw_verloopstaal_1"/><linearGradient id="Nieuw_verloopstaal_1-75" x1="28.56" y1="32.58" x2="28.93" y2="32.58" xlink:href="#Nieuw_verloopstaal_1"/><linearGradient id="Nieuw_verloopstaal_1-76" x1="28.93" y1="32.58" x2="29.29" y2="32.58" xlink:href="#Nieuw_verloopstaal_1"/><linearGradient id="Nieuw_verloopstaal_1-77" x1="29.29" y1="32.58" x2="29.66" y2="32.58" xlink:href="#Nieuw_verloopstaal_1"/><linearGradient id="Nieuw_verloopstaal_1-78" x1="29.66" y1="32.58" x2="30.03" y2="32.58" xlink:href="#Nieuw_verloopstaal_1"/><linearGradient id="Nieuw_verloopstaal_1-79" x1="30.03" y1="32.58" x2="30.39" y2="32.58" xlink:href="#Nieuw_verloopstaal_1"/><linearGradient id="Nieuw_verloopstaal_1-80" x1="30.39" y1="32.58" x2="30.76" y2="32.58" xlink:href="#Nieuw_verloopstaal_1"/><linearGradient id="Nieuw_verloopstaal_1-81" x1="30.76" y1="32.58" x2="31.13" y2="32.58" xlink:href="#Nieuw_verloopstaal_1"/><linearGradient id="Nieuw_verloopstaal_1-82" x1="31.13" y1="32.58" x2="31.45" y2="32.58" xlink:href="#Nieuw_verloopstaal_1"/><linearGradient id="Nieuw_verloopstaal_1-83" x1="31.45" y1="32.58" x2="31.78" y2="32.58" xlink:href="#Nieuw_verloopstaal_1"/><linearGradient id="Nieuw_verloopstaal_1-84" x1="31.78" y1="32.58" x2="32.1" y2="32.58" xlink:href="#Nieuw_verloopstaal_1"/><linearGradient id="Nieuw_verloopstaal_1-85" x1="32.1" y1="32.58" x2="32.42" y2="32.58" xlink:href="#Nieuw_verloopstaal_1"/><linearGradient id="Nieuw_verloopstaal_1-86" x1="32.42" y1="32.58" x2="32.75" y2="32.58" xlink:href="#Nieuw_verloopstaal_1"/><linearGradient id="Nieuw_verloopstaal_1-87" x1="32.75" y1="32.58" x2="33.07" y2="32.58" xlink:href="#Nieuw_verloopstaal_1"/><linearGradient id="Nieuw_verloopstaal_1-88" x1="33.07" y1="32.58" x2="33.4" y2="32.58" xlink:href="#Nieuw_verloopstaal_1"/><linearGradient id="Nieuw_verloopstaal_1-89" x1="33.4" y1="32.58" x2="33.72" y2="32.58" xlink:href="#Nieuw_verloopstaal_1"/><linearGradient id="Nieuw_verloopstaal_1-90" x1="33.72" y1="32.58" x2="34.04" y2="32.58" xlink:href="#Nieuw_verloopstaal_1"/><linearGradient id="Nieuw_verloopstaal_1-91" x1="34.04" y1="32.58" x2="34.37" y2="32.58" xlink:href="#Nieuw_verloopstaal_1"/><linearGradient id="Nieuw_verloopstaal_1-92" x1="34.37" y1="32.58" x2="34.69" y2="32.58" xlink:href="#Nieuw_verloopstaal_1"/><linearGradient id="Nieuw_verloopstaal_1-93" x1="34.69" y1="32.58" x2="35.02" y2="32.58" xlink:href="#Nieuw_verloopstaal_1"/><linearGradient id="Nieuw_verloopstaal_1-94" x1="35.02" y1="32.58" x2="35.34" y2="32.58" xlink:href="#Nieuw_verloopstaal_1"/><linearGradient id="Nieuw_verloopstaal_1-95" x1="35.34" y1="32.58" x2="35.66" y2="32.58" xlink:href="#Nieuw_verloopstaal_1"/><linearGradient id="Nieuw_verloopstaal_1-96" x1="35.66" y1="32.58" x2="35.99" y2="32.58" xlink:href="#Nieuw_verloopstaal_1"/><linearGradient id="Nieuw_verloopstaal_1-97" x1="35.99" y1="32.58" x2="36.31" y2="32.58" xlink:href="#Nieuw_verloopstaal_1"/><linearGradient id="Nieuw_verloopstaal_1-98" x1="36.31" y1="32.58" x2="36.64" y2="32.58" xlink:href="#Nieuw_verloopstaal_1"/><linearGradient id="Nieuw_verloopstaal_1-99" x1="36.64" y1="32.58" x2="36.96" y2="32.58" xlink:href="#Nieuw_verloopstaal_1"/><linearGradient id="Nieuw_verloopstaal_1-100" x1="36.96" y1="32.58" x2="37.28" y2="32.58" xlink:href="#Nieuw_verloopstaal_1"/><linearGradient id="Nieuw_verloopstaal_1-101" x1="37.28" y1="32.58" x2="37.61" y2="32.58" xlink:href="#Nieuw_verloopstaal_1"/><linearGradient id="Nieuw_verloopstaal_1-102" x1="37.61" y1="32.58" x2="37.93" y2="32.58" xlink:href="#Nieuw_verloopstaal_1"/><linearGradient id="Nieuw_verloopstaal_1-103" x1="37.93" y1="32.58" x2="38.26" y2="32.58" xlink:href="#Nieuw_verloopstaal_1"/><linearGradient id="Nieuw_verloopstaal_1-104" x1="38.26" y1="32.58" x2="38.58" y2="32.58" xlink:href="#Nieuw_verloopstaal_1"/><linearGradient id="Nieuw_verloopstaal_1-105" x1="38.58" y1="32.58" x2="38.9" y2="32.58" xlink:href="#Nieuw_verloopstaal_1"/><linearGradient id="Nieuw_verloopstaal_1-106" x1="38.9" y1="32.58" x2="39.23" y2="32.58" xlink:href="#Nieuw_verloopstaal_1"/><linearGradient id="Nieuw_verloopstaal_1-107" x1="39.23" y1="32.58" x2="39.55" y2="32.58" xlink:href="#Nieuw_verloopstaal_1"/><linearGradient id="Nieuw_verloopstaal_1-108" x1="39.55" y1="32.58" x2="39.88" y2="32.58" xlink:href="#Nieuw_verloopstaal_1"/><linearGradient id="Nieuw_verloopstaal_1-109" x1="39.88" y1="32.58" x2="40.2" y2="32.58" xlink:href="#Nieuw_verloopstaal_1"/><linearGradient id="Nieuw_verloopstaal_1-110" x1="40.2" y1="32.58" x2="40.52" y2="32.58" xlink:href="#Nieuw_verloopstaal_1"/><linearGradient id="Nieuw_verloopstaal_1-111" x1="40.52" y1="32.58" x2="40.85" y2="32.58" xlink:href="#Nieuw_verloopstaal_1"/><linearGradient id="Nieuw_verloopstaal_1-112" x1="40.85" y1="32.58" x2="41.17" y2="32.58" xlink:href="#Nieuw_verloopstaal_1"/><linearGradient id="Nieuw_verloopstaal_1-113" x1="41.17" y1="32.58" x2="41.5" y2="32.58" xlink:href="#Nieuw_verloopstaal_1"/><linearGradient id="Nieuw_verloopstaal_1-114" x1="41.5" y1="32.58" x2="41.82" y2="32.58" xlink:href="#Nieuw_verloopstaal_1"/><linearGradient id="Nieuw_verloopstaal_1-115" x1="41.82" y1="32.58" x2="42.14" y2="32.58" xlink:href="#Nieuw_verloopstaal_1"/><linearGradient id="Nieuw_verloopstaal_1-116" x1="42.14" y1="32.58" x2="42.47" y2="32.58" xlink:href="#Nieuw_verloopstaal_1"/><linearGradient id="Nieuw_verloopstaal_1-117" x1="42.47" y1="32.58" x2="42.79" y2="32.58" xlink:href="#Nieuw_verloopstaal_1"/><linearGradient id="Nieuw_verloopstaal_1-118" x1="42.79" y1="32.58" x2="43.12" y2="32.58" xlink:href="#Nieuw_verloopstaal_1"/><linearGradient id="Nieuw_verloopstaal_1-119" x1="43.12" y1="32.58" x2="43.44" y2="32.58" xlink:href="#Nieuw_verloopstaal_1"/><linearGradient id="Nieuw_verloopstaal_1-120" x1="43.44" y1="32.58" x2="43.76" y2="32.58" xlink:href="#Nieuw_verloopstaal_1"/><linearGradient id="Nieuw_verloopstaal_1-121" x1="43.76" y1="32.58" x2="44.09" y2="32.58" xlink:href="#Nieuw_verloopstaal_1"/><linearGradient id="Nieuw_verloopstaal_1-122" x1="44.09" y1="32.58" x2="44.41" y2="32.58" xlink:href="#Nieuw_verloopstaal_1"/><linearGradient id="Nieuw_verloopstaal_1-123" x1="44.41" y1="32.58" x2="44.73" y2="32.58" xlink:href="#Nieuw_verloopstaal_1"/><linearGradient id="Nieuw_verloopstaal_1-124" x1="44.73" y1="32.58" x2="45.06" y2="32.58" xlink:href="#Nieuw_verloopstaal_1"/><linearGradient id="Nieuw_verloopstaal_1-125" x1="45.06" y1="32.58" x2="45.38" y2="32.58" xlink:href="#Nieuw_verloopstaal_1"/><linearGradient id="Nieuw_verloopstaal_1-126" x1="45.38" y1="32.58" x2="45.71" y2="32.58" xlink:href="#Nieuw_verloopstaal_1"/><linearGradient id="Nieuw_verloopstaal_1-127" x1="45.71" y1="32.58" x2="46.03" y2="32.58" xlink:href="#Nieuw_verloopstaal_1"/><linearGradient id="Nieuw_verloopstaal_1-128" x1="46.03" y1="32.58" x2="46.35" y2="32.58" xlink:href="#Nieuw_verloopstaal_1"/><linearGradient id="Nieuw_verloopstaal_1-129" x1="46.35" y1="32.58" x2="46.68" y2="32.58" xlink:href="#Nieuw_verloopstaal_1"/><linearGradient id="Nieuw_verloopstaal_1-130" x1="46.68" y1="32.58" x2="47" y2="32.58" xlink:href="#Nieuw_verloopstaal_1"/><linearGradient id="Nieuw_verloopstaal_1-131" x1="47" y1="32.58" x2="47.33" y2="32.58" xlink:href="#Nieuw_verloopstaal_1"/><linearGradient id="Nieuw_verloopstaal_1-132" x1="47.33" y1="32.58" x2="47.65" y2="32.58" xlink:href="#Nieuw_verloopstaal_1"/><linearGradient id="Nieuw_verloopstaal_1-133" x1="47.65" y1="32.58" x2="47.97" y2="32.58" xlink:href="#Nieuw_verloopstaal_1"/><linearGradient id="Nieuw_verloopstaal_1-134" x1="47.97" y1="32.58" x2="48.3" y2="32.58" xlink:href="#Nieuw_verloopstaal_1"/><linearGradient id="Nieuw_verloopstaal_1-135" x1="48.3" y1="32.58" x2="48.62" y2="32.58" xlink:href="#Nieuw_verloopstaal_1"/><linearGradient id="Nieuw_verloopstaal_1-136" x1="48.62" y1="32.58" x2="48.95" y2="32.58" xlink:href="#Nieuw_verloopstaal_1"/><linearGradient id="Nieuw_verloopstaal_1-137" x1="48.95" y1="32.58" x2="49.27" y2="32.58" xlink:href="#Nieuw_verloopstaal_1"/><linearGradient id="Nieuw_verloopstaal_1-138" x1="49.27" y1="32.58" x2="49.59" y2="32.58" xlink:href="#Nieuw_verloopstaal_1"/><linearGradient id="Nieuw_verloopstaal_1-139" x1="49.59" y1="32.58" x2="49.92" y2="32.58" xlink:href="#Nieuw_verloopstaal_1"/><linearGradient id="Nieuw_verloopstaal_1-140" x1="49.92" y1="32.58" x2="50.24" y2="32.58" xlink:href="#Nieuw_verloopstaal_1"/><linearGradient id="Nieuw_verloopstaal_1-141" x1="50.24" y1="32.58" x2="50.57" y2="32.58" xlink:href="#Nieuw_verloopstaal_1"/><linearGradient id="Nieuw_verloopstaal_1-142" x1="50.57" y1="32.58" x2="50.89" y2="32.58" xlink:href="#Nieuw_verloopstaal_1"/><linearGradient id="Nieuw_verloopstaal_1-143" x1="50.89" y1="32.58" x2="51.21" y2="32.58" xlink:href="#Nieuw_verloopstaal_1"/><linearGradient id="Nieuw_verloopstaal_1-144" x1="51.21" y1="32.58" x2="51.54" y2="32.58" xlink:href="#Nieuw_verloopstaal_1"/><linearGradient id="Nieuw_verloopstaal_1-145" x1="51.54" y1="32.58" x2="51.86" y2="32.58" xlink:href="#Nieuw_verloopstaal_1"/><linearGradient id="Nieuw_verloopstaal_1-146" x1="51.86" y1="32.58" x2="52.19" y2="32.58" xlink:href="#Nieuw_verloopstaal_1"/><linearGradient id="Nieuw_verloopstaal_1-147" x1="52.19" y1="32.58" x2="52.51" y2="32.58" xlink:href="#Nieuw_verloopstaal_1"/><linearGradient id="Nieuw_verloopstaal_1-148" x1="52.51" y1="32.58" x2="52.83" y2="32.58" xlink:href="#Nieuw_verloopstaal_1"/><linearGradient id="Nieuw_verloopstaal_1-149" x1="52.83" y1="32.58" x2="53.16" y2="32.58" xlink:href="#Nieuw_verloopstaal_1"/><linearGradient id="Nieuw_verloopstaal_1-150" x1="53.16" y1="32.58" x2="53.48" y2="32.58" xlink:href="#Nieuw_verloopstaal_1"/><linearGradient id="Nieuw_verloopstaal_1-151" x1="53.48" y1="32.58" x2="53.81" y2="32.58" xlink:href="#Nieuw_verloopstaal_1"/><linearGradient id="Nieuw_verloopstaal_1-152" x1="53.81" y1="32.58" x2="54.13" y2="32.58" xlink:href="#Nieuw_verloopstaal_1"/><linearGradient id="Nieuw_verloopstaal_1-153" x1="54.13" y1="32.58" x2="54.45" y2="32.58" xlink:href="#Nieuw_verloopstaal_1"/><linearGradient id="Nieuw_verloopstaal_1-154" x1="54.45" y1="32.58" x2="54.78" y2="32.58" xlink:href="#Nieuw_verloopstaal_1"/><linearGradient id="Nieuw_verloopstaal_1-155" x1="54.78" y1="32.58" x2="55.1" y2="32.58" xlink:href="#Nieuw_verloopstaal_1"/><linearGradient id="Nieuw_verloopstaal_1-156" x1="55.1" y1="32.58" x2="55.43" y2="32.58" xlink:href="#Nieuw_verloopstaal_1"/><linearGradient id="Nieuw_verloopstaal_1-157" x1="55.43" y1="32.58" x2="55.75" y2="32.58" xlink:href="#Nieuw_verloopstaal_1"/><linearGradient id="Nieuw_verloopstaal_1-158" x1="55.75" y1="32.58" x2="56.07" y2="32.58" xlink:href="#Nieuw_verloopstaal_1"/><linearGradient id="Nieuw_verloopstaal_1-159" x1="56.07" y1="32.58" x2="56.4" y2="32.58" xlink:href="#Nieuw_verloopstaal_1"/><linearGradient id="Nieuw_verloopstaal_1-160" x1="56.4" y1="32.58" x2="56.72" y2="32.58" xlink:href="#Nieuw_verloopstaal_1"/><linearGradient id="Nieuw_verloopstaal_1-161" x1="56.72" y1="32.58" x2="57.05" y2="32.58" xlink:href="#Nieuw_verloopstaal_1"/><linearGradient id="Nieuw_verloopstaal_1-162" x1="57.05" y1="32.58" x2="57.37" y2="32.58" xlink:href="#Nieuw_verloopstaal_1"/><linearGradient id="Nieuw_verloopstaal_1-163" x1="57.37" y1="32.58" x2="57.69" y2="32.58" xlink:href="#Nieuw_verloopstaal_1"/><linearGradient id="Nieuw_verloopstaal_1-164" x1="57.69" y1="32.58" x2="58.02" y2="32.58" xlink:href="#Nieuw_verloopstaal_1"/><linearGradient id="Nieuw_verloopstaal_1-165" x1="58.02" y1="32.58" x2="58.34" y2="32.58" xlink:href="#Nieuw_verloopstaal_1"/><linearGradient id="Nieuw_verloopstaal_1-166" x1="58.34" y1="32.58" x2="58.67" y2="32.58" xlink:href="#Nieuw_verloopstaal_1"/><linearGradient id="Nieuw_verloopstaal_1-167" x1="58.67" y1="32.58" x2="58.99" y2="32.58" xlink:href="#Nieuw_verloopstaal_1"/><linearGradient id="Nieuw_verloopstaal_1-168" x1="58.99" y1="32.58" x2="59.31" y2="32.58" xlink:href="#Nieuw_verloopstaal_1"/><linearGradient id="Nieuw_verloopstaal_1-169" x1="59.31" y1="32.58" x2="59.64" y2="32.58" xlink:href="#Nieuw_verloopstaal_1"/><linearGradient id="Nieuw_verloopstaal_1-170" x1="59.64" y1="32.58" x2="59.96" y2="32.58" xlink:href="#Nieuw_verloopstaal_1"/><linearGradient id="Nieuw_verloopstaal_1-171" x1="59.96" y1="32.58" x2="60.29" y2="32.58" xlink:href="#Nieuw_verloopstaal_1"/><linearGradient id="Nieuw_verloopstaal_1-172" x1="60.29" y1="32.58" x2="60.61" y2="32.58" xlink:href="#Nieuw_verloopstaal_1"/><linearGradient id="Nieuw_verloopstaal_1-173" x1="60.61" y1="32.58" x2="60.93" y2="32.58" xlink:href="#Nieuw_verloopstaal_1"/><linearGradient id="Nieuw_verloopstaal_1-174" x1="60.93" y1="32.58" x2="61.26" y2="32.58" xlink:href="#Nieuw_verloopstaal_1"/><linearGradient id="Nieuw_verloopstaal_1-175" x1="61.26" y1="32.58" x2="61.58" y2="32.58" xlink:href="#Nieuw_verloopstaal_1"/><linearGradient id="Nieuw_verloopstaal_1-176" x1="61.58" y1="32.58" x2="61.91" y2="32.58" xlink:href="#Nieuw_verloopstaal_1"/><linearGradient id="Nieuw_verloopstaal_1-177" x1="61.91" y1="32.58" x2="62.23" y2="32.58" xlink:href="#Nieuw_verloopstaal_1"/><linearGradient id="Nieuw_verloopstaal_1-178" x1="62.23" y1="32.58" x2="62.55" y2="32.58" xlink:href="#Nieuw_verloopstaal_1"/><linearGradient id="Nieuw_verloopstaal_1-179" x1="62.55" y1="32.58" x2="62.88" y2="32.58" xlink:href="#Nieuw_verloopstaal_1"/><linearGradient id="Nieuw_verloopstaal_1-180" x1="62.88" y1="32.58" x2="62.88" y2="32.58" xlink:href="#Nieuw_verloopstaal_1"/><linearGradient id="Nieuwe_verloopstaal_2-2" x1="0" y1="32.58" x2="65.38" y2="32.58" xlink:href="#Nieuwe_verloopstaal_2"/></defs><title>logout</title><g id="Laag_2" data-name="Laag 2"><g id="Laag_1-2" data-name="Laag 1"><g id="Icon"><path class="cls-2" d="M46.13,30.21a17.12,17.12,0,1,0-26.88,0C9.32,33,2.5,38.82,2.5,45.54,2.5,55,16,62.66,32.69,62.66S62.88,55,62.88,45.54C62.88,38.82,56.05,33,46.13,30.21Z"/><line class="cls-1" x1="2.5" y1="62.66" x2="62.88" y2="2.5"/><g class="cls-3"><path class="cls-4" d="M2.5,2.5v0Z"/><rect class="cls-5" x="2.5" y="2.5" width="0.37" height="60.16"/><rect class="cls-6" x="2.87" y="2.5" width="0.37" height="60.16"/><rect class="cls-7" x="3.23" y="2.5" width="0.37" height="60.16"/><rect class="cls-8" x="3.6" y="2.5" width="0.37" height="60.16"/><rect class="cls-9" x="3.97" y="2.5" width="0.37" height="60.16"/><rect class="cls-10" x="4.34" y="2.5" width="0.37" height="60.16"/><rect class="cls-11" x="4.7" y="2.5" width="0.37" height="60.16"/><rect class="cls-12" x="5.07" y="2.5" width="0.37" height="60.16"/><rect class="cls-13" x="5.44" y="2.5" width="0.37" height="60.16"/><rect class="cls-14" x="5.8" y="2.5" width="0.37" height="60.16"/><rect class="cls-15" x="6.17" y="2.5" width="0.37" height="60.16"/><rect class="cls-16" x="6.54" y="2.5" width="0.37" height="60.16"/><rect class="cls-17" x="6.9" y="2.5" width="0.37" height="60.16"/><rect class="cls-18" x="7.27" y="2.5" width="0.37" height="60.16"/><rect class="cls-19" x="7.64" y="2.5" width="0.37" height="60.16"/><rect class="cls-20" x="8.01" y="2.5" width="0.37" height="60.16"/><rect class="cls-21" x="8.37" y="2.5" width="0.37" height="60.16"/><rect class="cls-22" x="8.74" y="2.5" width="0.37" height="60.16"/><rect class="cls-23" x="9.11" y="2.5" width="0.37" height="60.16"/><rect class="cls-24" x="9.47" y="2.5" width="0.37" height="60.16"/><rect class="cls-25" x="9.84" y="2.5" width="0.37" height="60.16"/><rect class="cls-26" x="10.21" y="2.5" width="0.37" height="60.16"/><rect class="cls-27" x="10.57" y="2.5" width="0.37" height="60.16"/><rect class="cls-28" x="10.94" y="2.5" width="0.37" height="60.16"/><rect class="cls-29" x="11.31" y="2.5" width="0.37" height="60.16"/><rect class="cls-30" x="11.68" y="2.5" width="0.37" height="60.16"/><rect class="cls-31" x="12.04" y="2.5" width="0.37" height="60.16"/><rect class="cls-32" x="12.41" y="2.5" width="0.37" height="60.16"/><rect class="cls-33" x="12.78" y="2.5" width="0.37" height="60.16"/><rect class="cls-34" x="13.14" y="2.5" width="0.37" height="60.16"/><rect class="cls-35" x="13.51" y="2.5" width="0.37" height="60.16"/><rect class="cls-36" x="13.88" y="2.5" width="0.37" height="60.16"/><rect class="cls-37" x="14.24" y="2.5" width="0.37" height="60.16"/><rect class="cls-38" x="14.61" y="2.5" width="0.37" height="60.16"/><rect class="cls-39" x="14.98" y="2.5" width="0.37" height="60.16"/><rect class="cls-40" x="15.35" y="2.5" width="0.37" height="60.16"/><rect class="cls-41" x="15.71" y="2.5" width="0.37" height="60.16"/><rect class="cls-42" x="16.08" y="2.5" width="0.37" height="60.16"/><rect class="cls-43" x="16.45" y="2.5" width="0.37" height="60.16"/><rect class="cls-44" x="16.81" y="2.5" width="0.37" height="60.16"/><rect class="cls-45" x="17.18" y="2.5" width="0.37" height="60.16"/><rect class="cls-46" x="17.55" y="2.5" width="0.37" height="60.16"/><rect class="cls-47" x="17.92" y="2.5" width="0.37" height="60.16"/><rect class="cls-48" x="18.28" y="2.5" width="0.37" height="60.16"/><rect class="cls-49" x="18.65" y="2.5" width="0.37" height="60.16"/><rect class="cls-50" x="19.02" y="2.5" width="0.37" height="60.16"/><rect class="cls-51" x="19.38" y="2.5" width="0.37" height="60.16"/><rect class="cls-52" x="19.75" y="2.5" width="0.37" height="60.16"/><rect class="cls-53" x="20.12" y="2.5" width="0.37" height="60.16"/><rect class="cls-54" x="20.48" y="2.5" width="0.37" height="60.16"/><rect class="cls-55" x="20.85" y="2.5" width="0.37" height="60.16"/><rect class="cls-56" x="21.22" y="2.5" width="0.37" height="60.16"/><rect class="cls-57" x="21.59" y="2.5" width="0.37" height="60.16"/><rect class="cls-58" x="21.95" y="2.5" width="0.37" height="60.16"/><rect class="cls-59" x="22.32" y="2.5" width="0.37" height="60.16"/><rect class="cls-60" x="22.69" y="2.5" width="0.37" height="60.16"/><rect class="cls-61" x="23.05" y="2.5" width="0.37" height="60.16"/><rect class="cls-62" x="23.42" y="2.5" width="0.37" height="60.16"/><rect class="cls-63" x="23.79" y="2.5" width="0.37" height="60.16"/><rect class="cls-64" x="24.15" y="2.5" width="0.37" height="60.16"/><rect class="cls-65" x="24.52" y="2.5" width="0.37" height="60.16"/><rect class="cls-66" x="24.89" y="2.5" width="0.37" height="60.16"/><rect class="cls-67" x="25.26" y="2.5" width="0.37" height="60.16"/><rect class="cls-68" x="25.62" y="2.5" width="0.37" height="60.16"/><rect class="cls-69" x="25.99" y="2.5" width="0.37" height="60.16"/><rect class="cls-70" x="26.36" y="2.5" width="0.37" height="60.16"/><rect class="cls-71" x="26.72" y="2.5" width="0.37" height="60.16"/><rect class="cls-72" x="27.09" y="2.5" width="0.37" height="60.16"/><rect class="cls-73" x="27.46" y="2.5" width="0.37" height="60.16"/><rect class="cls-74" x="27.82" y="2.5" width="0.37" height="60.16"/><rect class="cls-75" x="28.19" y="2.5" width="0.37" height="60.16"/><rect class="cls-76" x="28.56" y="2.5" width="0.37" height="60.16"/><rect class="cls-77" x="28.93" y="2.5" width="0.37" height="60.16"/><rect class="cls-78" x="29.29" y="2.5" width="0.37" height="60.16"/><rect class="cls-79" x="29.66" y="2.5" width="0.37" height="60.16"/><rect class="cls-80" x="30.03" y="2.5" width="0.37" height="60.16"/><rect class="cls-81" x="30.39" y="2.5" width="0.37" height="60.16"/><rect class="cls-82" x="30.76" y="2.5" width="0.37" height="60.16"/><rect class="cls-83" x="31.13" y="2.5" width="0.32" height="60.16"/><rect class="cls-84" x="31.45" y="2.5" width="0.32" height="60.16"/><rect class="cls-85" x="31.78" y="2.5" width="0.32" height="60.16"/><rect class="cls-86" x="32.1" y="2.5" width="0.32" height="60.16"/><rect class="cls-87" x="32.42" y="2.5" width="0.32" height="60.16"/><rect class="cls-88" x="32.75" y="2.5" width="0.32" height="60.16"/><rect class="cls-89" x="33.07" y="2.5" width="0.32" height="60.16"/><rect class="cls-90" x="33.4" y="2.5" width="0.32" height="60.16"/><rect class="cls-91" x="33.72" y="2.5" width="0.32" height="60.16"/><rect class="cls-92" x="34.04" y="2.5" width="0.32" height="60.16"/><rect class="cls-93" x="34.37" y="2.5" width="0.32" height="60.16"/><rect class="cls-94" x="34.69" y="2.5" width="0.32" height="60.16"/><rect class="cls-95" x="35.02" y="2.5" width="0.32" height="60.16"/><rect class="cls-96" x="35.34" y="2.5" width="0.32" height="60.16"/><rect class="cls-97" x="35.66" y="2.5" width="0.32" height="60.16"/><rect class="cls-98" x="35.99" y="2.5" width="0.32" height="60.16"/><rect class="cls-99" x="36.31" y="2.5" width="0.32" height="60.16"/><rect class="cls-100" x="36.64" y="2.5" width="0.32" height="60.16"/><rect class="cls-101" x="36.96" y="2.5" width="0.32" height="60.16"/><rect class="cls-102" x="37.28" y="2.5" width="0.32" height="60.16"/><rect class="cls-103" x="37.61" y="2.5" width="0.32" height="60.16"/><rect class="cls-104" x="37.93" y="2.5" width="0.32" height="60.16"/><rect class="cls-105" x="38.26" y="2.5" width="0.32" height="60.16"/><rect class="cls-106" x="38.58" y="2.5" width="0.32" height="60.16"/><rect class="cls-107" x="38.9" y="2.5" width="0.32" height="60.16"/><rect class="cls-108" x="39.23" y="2.5" width="0.32" height="60.16"/><rect class="cls-109" x="39.55" y="2.5" width="0.32" height="60.16"/><rect class="cls-110" x="39.88" y="2.5" width="0.32" height="60.16"/><rect class="cls-111" x="40.2" y="2.5" width="0.32" height="60.16"/><rect class="cls-112" x="40.52" y="2.5" width="0.32" height="60.16"/><rect class="cls-113" x="40.85" y="2.5" width="0.32" height="60.16"/><rect class="cls-114" x="41.17" y="2.5" width="0.32" height="60.16"/><rect class="cls-115" x="41.5" y="2.5" width="0.32" height="60.16"/><rect class="cls-116" x="41.82" y="2.5" width="0.32" height="60.16"/><rect class="cls-117" x="42.14" y="2.5" width="0.32" height="60.16"/><rect class="cls-118" x="42.47" y="2.5" width="0.32" height="60.16"/><rect class="cls-119" x="42.79" y="2.5" width="0.32" height="60.16"/><rect class="cls-120" x="43.12" y="2.5" width="0.32" height="60.16"/><rect class="cls-121" x="43.44" y="2.5" width="0.32" height="60.16"/><rect class="cls-122" x="43.76" y="2.5" width="0.32" height="60.16"/><rect class="cls-123" x="44.09" y="2.5" width="0.32" height="60.16"/><rect class="cls-124" x="44.41" y="2.5" width="0.32" height="60.16"/><rect class="cls-125" x="44.73" y="2.5" width="0.32" height="60.16"/><rect class="cls-126" x="45.06" y="2.5" width="0.32" height="60.16"/><rect class="cls-127" x="45.38" y="2.5" width="0.32" height="60.16"/><rect class="cls-128" x="45.71" y="2.5" width="0.32" height="60.16"/><rect class="cls-129" x="46.03" y="2.5" width="0.32" height="60.16"/><rect class="cls-130" x="46.35" y="2.5" width="0.32" height="60.16"/><rect class="cls-131" x="46.68" y="2.5" width="0.32" height="60.16"/><rect class="cls-132" x="47" y="2.5" width="0.32" height="60.16"/><rect class="cls-133" x="47.33" y="2.5" width="0.32" height="60.16"/><rect class="cls-134" x="47.65" y="2.5" width="0.32" height="60.16"/><rect class="cls-135" x="47.97" y="2.5" width="0.32" height="60.16"/><rect class="cls-136" x="48.3" y="2.5" width="0.32" height="60.16"/><rect class="cls-137" x="48.62" y="2.5" width="0.32" height="60.16"/><rect class="cls-138" x="48.95" y="2.5" width="0.32" height="60.16"/><rect class="cls-139" x="49.27" y="2.5" width="0.32" height="60.16"/><rect class="cls-140" x="49.59" y="2.5" width="0.32" height="60.16"/><rect class="cls-141" x="49.92" y="2.5" width="0.32" height="60.16"/><rect class="cls-142" x="50.24" y="2.5" width="0.32" height="60.16"/><rect class="cls-143" x="50.57" y="2.5" width="0.32" height="60.16"/><rect class="cls-144" x="50.89" y="2.5" width="0.32" height="60.16"/><rect class="cls-145" x="51.21" y="2.5" width="0.32" height="60.16"/><rect class="cls-146" x="51.54" y="2.5" width="0.32" height="60.16"/><rect class="cls-147" x="51.86" y="2.5" width="0.32" height="60.16"/><rect class="cls-148" x="52.19" y="2.5" width="0.32" height="60.16"/><rect class="cls-149" x="52.51" y="2.5" width="0.32" height="60.16"/><rect class="cls-150" x="52.83" y="2.5" width="0.32" height="60.16"/><rect class="cls-151" x="53.16" y="2.5" width="0.32" height="60.16"/><rect class="cls-152" x="53.48" y="2.5" width="0.32" height="60.16"/><rect class="cls-153" x="53.81" y="2.5" width="0.32" height="60.16"/><rect class="cls-154" x="54.13" y="2.5" width="0.32" height="60.16"/><rect class="cls-155" x="54.45" y="2.5" width="0.32" height="60.16"/><rect class="cls-156" x="54.78" y="2.5" width="0.32" height="60.16"/><rect class="cls-157" x="55.1" y="2.5" width="0.32" height="60.16"/><rect class="cls-158" x="55.43" y="2.5" width="0.32" height="60.16"/><rect class="cls-159" x="55.75" y="2.5" width="0.32" height="60.16"/><rect class="cls-160" x="56.07" y="2.5" width="0.32" height="60.16"/><rect class="cls-161" x="56.4" y="2.5" width="0.32" height="60.16"/><rect class="cls-162" x="56.72" y="2.5" width="0.32" height="60.16"/><rect class="cls-163" x="57.05" y="2.5" width="0.32" height="60.16"/><rect class="cls-164" x="57.37" y="2.5" width="0.32" height="60.16"/><rect class="cls-165" x="57.69" y="2.5" width="0.32" height="60.16"/><rect class="cls-166" x="58.02" y="2.5" width="0.32" height="60.16"/><rect class="cls-167" x="58.34" y="2.5" width="0.32" height="60.16"/><rect class="cls-168" x="58.67" y="2.5" width="0.32" height="60.16"/><rect class="cls-169" x="58.99" y="2.5" width="0.32" height="60.16"/><rect class="cls-170" x="59.31" y="2.5" width="0.32" height="60.16"/><rect class="cls-171" x="59.64" y="2.5" width="0.32" height="60.16"/><rect class="cls-172" x="59.96" y="2.5" width="0.32" height="60.16"/><rect class="cls-173" x="60.29" y="2.5" width="0.32" height="60.16"/><rect class="cls-174" x="60.61" y="2.5" width="0.32" height="60.16"/><rect class="cls-175" x="60.93" y="2.5" width="0.32" height="60.16"/><rect class="cls-176" x="61.26" y="2.5" width="0.32" height="60.16"/><rect class="cls-177" x="61.58" y="2.5" width="0.32" height="60.16"/><rect class="cls-178" x="61.91" y="2.5" width="0.32" height="60.16"/><rect class="cls-179" x="62.23" y="2.5" width="0.32" height="60.16"/><rect class="cls-180" x="62.55" y="2.5" width="0.32" height="60.16"/><path class="cls-181" d="M62.88,62.66v0Z"/></g><path class="cls-182" d="M2.5,65.16A2.5,2.5,0,0,1,.74,60.89L61.11.73a2.5,2.5,0,1,1,3.53,3.54L4.26,64.43A2.45,2.45,0,0,1,2.5,65.16Z"/></g></g></g></svg>