<svg xmlns="http://www.w3.org/2000/svg" xmlns:xlink="http://www.w3.org/1999/xlink" viewBox="0 0 65.1 58.84"><defs><style>.cls-1,.cls-2{fill:none;stroke-miterlimit:10;stroke-width:4px;}.cls-1{stroke:url(#Nieuwe_verloopstaal_2);}.cls-2{stroke:url(#Nieuwe_verloopstaal_2-2);}</style><linearGradient id="Nieuwe_verloopstaal_2" x1="-313.37" y1="329.77" x2="-314.53" y2="329.77" gradientTransform="matrix(47.94, 0, 0, -43.03, 15084.02, 14218.86)" gradientUnits="userSpaceOnUse"><stop offset="0" stop-color="#e54216"/><stop offset="0.47" stop-color="#e8620c"/><stop offset="1" stop-color="#f59b0b"/></linearGradient><linearGradient id="Nieuwe_verloopstaal_2-2" x1="-307.49" y1="316.02" x2="-308.65" y2="316.02" gradientTransform="matrix(25.71, 0, 0, -20.3, 7952.93, 6465.39)" xlink:href="#Nieuwe_verloopstaal_2"/></defs><title>match</title><g id="Laag_2" data-name="Laag 2"><g id="Laag_1-2" data-name="Laag 1"><g id="Icon"><path class="cls-1" d="M21.08,21.79,30.27,3.41a2.55,2.55,0,0,1,3.42-1.14,2.52,2.52,0,0,1,1.14,1.14L44,21.79h.23l4.06-8.16a2.54,2.54,0,0,1,4.56,0l6,12.12a2.55,2.55,0,0,1-1.14,3.42,2.34,2.34,0,0,1-.48.18L63,53.7a2.32,2.32,0,0,1,.07.59,2.55,2.55,0,0,1-2.55,2.55h-56A3,3,0,0,1,4,56.77,2.56,2.56,0,0,1,2.07,53.7L7.82,29.35a2.56,2.56,0,0,1-1.89-2.46,2.62,2.62,0,0,1,.27-1.14l6-12.12a2.55,2.55,0,0,1,4.57,0l4.06,8.16Z"/><path class="cls-2" d="M32.46,52,19.77,42.25a8.79,8.79,0,0,1-3.58-9.06,8.94,8.94,0,0,1,7-6.85,9.06,9.06,0,0,1,9.16,3.6,9.08,9.08,0,0,1,9.18-3.62,8.93,8.93,0,0,1,7,6.86A8.8,8.8,0,0,1,45,42.25Z"/></g></g></g></svg>