<svg xmlns="http://www.w3.org/2000/svg" xmlns:xlink="http://www.w3.org/1999/xlink" viewBox="0 0 62.33 63.53"><defs><style>.cls-1,.cls-2{fill:none;stroke-miterlimit:10;stroke-width:4px;}.cls-1{stroke:url(#Nieuwe_verloopstaal_2);}.cls-2{stroke:url(#Nieuwe_verloopstaal_2-2);}</style><linearGradient id="Nieuwe_verloopstaal_2" x1="-393.04" y1="425.08" x2="-394.24" y2="425.08" gradientTransform="matrix(30.7, 23.13, 20.83, -27.64, 3265.29, 20881.75)" gradientUnits="userSpaceOnUse"><stop offset="0" stop-color="#e54216"/><stop offset="0.47" stop-color="#e8620c"/><stop offset="1" stop-color="#f59b0b"/></linearGradient><linearGradient id="Nieuwe_verloopstaal_2-2" x1="-362.2" y1="379.78" x2="-363.4" y2="379.78" gradientTransform="matrix(9, 0, 0, -9, 3285.58, 3472.75)" xlink:href="#Nieuwe_verloopstaal_2"/></defs><title>notifications</title><g id="Laag_2" data-name="Laag 2"><g id="Laag_1-2" data-name="Laag 1"><g id="Icon"><path class="cls-1" d="M13.09,23.59,23.16,10.23a20.67,20.67,0,1,1,33,24.88L46.1,48.47l1.74,1.31A5.86,5.86,0,0,1,49,58l-.92,1.22a5.86,5.86,0,0,1-8.2,1.15L4.33,33.56a5.85,5.85,0,0,1-1.15-8.2l.92-1.22A5.85,5.85,0,0,1,12.29,23Z"/><circle class="cls-2" cx="20.52" cy="54.75" r="6.58"/></g></g></g></svg>