<svg xmlns="http://www.w3.org/2000/svg" xmlns:xlink="http://www.w3.org/1999/xlink" viewBox="0 0 64.37 64.38"><defs><style>.cls-1{fill:none;stroke-miterlimit:10;stroke-width:4px;stroke:url(#Nieuwe_verloopstaal_2);}</style><linearGradient id="Nieuwe_verloopstaal_2" y1="32.19" x2="64.37" y2="32.19" gradientUnits="userSpaceOnUse"><stop offset="0" stop-color="#e54216"/><stop offset="0.47" stop-color="#e8620c"/><stop offset="1" stop-color="#f59b0b"/></linearGradient></defs><title>settings</title><g id="Laag_2" data-name="Laag 2"><g id="Laag_1-2" data-name="Laag 1"><g id="Icon"><path class="cls-1" d="M58.92,25.05h-5a20.52,20.52,0,0,0-1.31-3.17l3.54-3.54a3.45,3.45,0,0,0,0-4.88L50.92,8.23a3.46,3.46,0,0,0-4.88,0l-3.55,3.55a20.82,20.82,0,0,0-3.16-1.31v-5A3.45,3.45,0,0,0,35.88,2H28.49A3.46,3.46,0,0,0,25,5.45v5a20.82,20.82,0,0,0-3.16,1.31L18.33,8.23a3.46,3.46,0,0,0-4.88,0L8.23,13.46a3.45,3.45,0,0,0,0,4.88l3.54,3.54a20.52,20.52,0,0,0-1.31,3.17h-5A3.44,3.44,0,0,0,2,28.5v7.39a3.45,3.45,0,0,0,3.45,3.45h5a20.52,20.52,0,0,0,1.31,3.17L8.23,46.05a3.45,3.45,0,0,0,0,4.88l5.22,5.22a3.45,3.45,0,0,0,4.88,0l3.54-3.54A20.52,20.52,0,0,0,25,53.92v5a3.45,3.45,0,0,0,3.45,3.45h7.39a3.44,3.44,0,0,0,3.45-3.45v-5a20.52,20.52,0,0,0,3.17-1.31L46,56.15a3.45,3.45,0,0,0,4.88,0l5.22-5.22a3.45,3.45,0,0,0,0-4.88L52.6,42.51a20.52,20.52,0,0,0,1.31-3.17h5a3.45,3.45,0,0,0,3.45-3.45V28.5A3.44,3.44,0,0,0,58.92,25.05ZM32.18,43A10.78,10.78,0,1,1,43,32.19,10.78,10.78,0,0,1,32.18,43Z"/></g></g></g></svg>