<svg xmlns="http://www.w3.org/2000/svg" width="53" height="54" viewBox="0 0 53 54">
  <defs>
    <linearGradient id="settings-bg-white-a" x1="92.8%" x2="4.858%" y1="50%" y2="50%">
      <stop offset="0%" stop-color="#7C4997"/>
      <stop offset="47.414%" stop-color="#B74A95"/>
      <stop offset="100%" stop-color="#6171B4"/>
    </linearGradient>
  </defs>
  <path fill="none" stroke="url(#settings-bg-white-a)" stroke-width="3" d="M45.7226348,18.5156785 L41.7062413,18.5156785 C41.4271556,17.6390007 41.0751612,16.787228 40.6539463,15.969285 L43.4975528,13.1256785 C44.0175112,12.6059253 44.3096381,11.9008656 44.3096381,11.1656785 C44.3096381,10.4304914 44.0175112,9.72543163 43.4975528,9.20567849 L39.2964053,5.00453095 C38.2122258,3.92616811 36.4605847,3.92616811 35.3764053,5.00453095 L32.5247659,7.85617029 C31.7089427,7.43637164 30.8599576,7.08441898 29.9864053,6.80387521 L29.9864053,2.78748177 C29.9906823,2.04970464 29.7005949,1.34067642 29.1804089,0.817474837 C28.6602229,0.294273253 27.9528833,9.23196104e-05 27.2150938,0.000104716935 L21.2788643,0.000104716935 C20.5389601,-0.00631388889 19.8270391,0.282570054 19.3008212,0.802756724 C18.7746034,1.32294339 18.4775324,2.0314872 18.4754217,2.77141619 L18.4754217,6.78780963 C17.6018693,7.0683534 16.7528843,7.42030607 15.937061,7.84010472 L13.1175528,5.00453095 C12.0333733,3.92616811 10.2817323,3.92616811 9.19755281,5.00453095 L5.00443806,9.20567849 C4.48447964,9.72543163 4.19235278,10.4304914 4.19235278,11.1656785 C4.19235278,11.9008656 4.48447964,12.6059253 5.00443806,13.1256785 L7.84804462,15.969285 C7.42682968,16.787228 7.07483528,17.6390007 6.79574953,18.5156785 L2.77935609,18.5156785 C2.04231511,18.5113901 1.33410453,18.8017309 0.812175339,19.3221517 C0.290246152,19.8425724 -0.00214324357,20.5499397 1.18290853e-05,21.28699 L1.18290853e-05,27.2232195 C1.18290853e-05,27.958217 0.29198845,28.6631109 0.811710167,29.1828326 C1.33143189,29.7025543 2.0363258,29.9945309 2.7713233,29.9945309 L6.78771675,29.9945309 C7.0668025,30.8712087 7.4187969,31.7229814 7.84001183,32.5409244 L5.00443806,35.3845309 C4.48447964,35.9042841 4.19235278,36.6093438 4.19235278,37.3445309 C4.19235278,38.0797181 4.48447964,38.7847778 5.00443806,39.3045309 L9.19755281,43.4976457 C9.71730595,44.0176041 10.4223657,44.309731 11.1575528,44.309731 C11.8927399,44.309731 12.5977997,44.0176041 13.1175528,43.4976457 L15.9611594,40.6540391 C16.7687596,41.0736124 17.6097213,41.4255804 18.4754217,41.7063342 L18.4754217,45.7227277 C18.4754217,47.2532807 19.7161801,48.4940391 21.2467331,48.4940391 L27.1829626,48.4940391 C27.9186146,48.4961808 28.6247536,48.204892 29.1449402,47.6847053 C29.6651269,47.1645186 29.9564158,46.4583796 29.9542741,45.7227277 L29.9542741,41.7063342 C30.8309519,41.4272485 31.6827246,41.0752541 32.5006676,40.6540391 L35.3442741,43.4976457 C35.8640273,44.0176041 36.569087,44.309731 37.3042741,44.309731 C38.0394612,44.309731 38.744521,44.0176041 39.2642741,43.4976457 L43.4573889,39.3045309 C43.9773473,38.7847778 44.2694742,38.0797181 44.2694742,37.3445309 C44.2694742,36.6093438 43.9773473,35.9042841 43.4573889,35.3845309 L40.6459135,32.5409244 C41.0671284,31.7229814 41.4191228,30.8712087 41.6982086,29.9945309 L45.714602,29.9945309 C46.4495995,29.9945309 47.1544934,29.7025543 47.6742151,29.1828326 C48.1939368,28.6631109 48.4859135,27.958217 48.4859135,27.2232195 L48.4859135,21.28699 C48.4880479,20.5527321 48.1978602,19.8478159 47.6794134,19.327862 C47.1609666,18.8079081 46.4568957,18.5156754 45.7226348,18.5156785 Z M24.2429626,32.9345309 C19.467902,32.916794 15.6084095,29.0369437 15.6157936,24.2618559 C15.6231777,19.486768 19.4946511,15.6188727 24.2697437,15.6159038 C29.0448364,15.612935 32.9211164,19.4760133 32.9344381,24.2510883 C32.9408724,26.5574404 32.0269744,28.7710682 30.3953771,30.4011576 C28.7637797,32.031247 26.5493078,32.9430978 24.2429626,32.9345309 Z" transform="translate(2 3)"/>
</svg>
