<svg xmlns="http://www.w3.org/2000/svg" width="53" height="54" viewBox="0 0 53 54">
  <defs>
    <linearGradient id="user-bg-white-a" x1="92.8%" x2="4.858%" y1="50%" y2="50%">
      <stop offset="0%" stop-color="#7C4997"/>
      <stop offset="47.414%" stop-color="#B74A95"/>
      <stop offset="100%" stop-color="#6171B4"/>
    </linearGradient>
  </defs>
  <path fill="none" stroke="url(#user-bg-white-a)" stroke-width="3" d="M35.0470492,23.1532258 C43.0155738,25.4112903 48.5019672,30.0967742 48.5019672,35.483871 C48.5019672,43.1451613 37.6416393,49.3225806 24.2509836,49.3225806 C10.8603279,49.3225806 0,43.1451613 0,35.483871 C0,30.0967742 5.47836066,25.4112903 13.454918,23.1532258 C16.0592646,26.4770271 20.0386784,28.4173904 24.2509836,28.4173904 C28.4632888,28.4173904 32.4427026,26.4770271 35.0470492,23.1532258 Z M35.0470492,23.1532258 C32.3961585,26.4187701 28.6954528,27.9260196 24.5,28 C20.3045472,27.9260196 16.1058087,26.4187701 13.454918,23.1532258 C9.0084921,17.4957616 9.64416895,9.35654887 14.9145581,4.46398009 C20.1849472,-0.428588688 28.31702,-0.428588688 33.5874091,4.46398009 C38.8577983,9.35654887 39.4934751,17.4957616 35.0470492,23.1532258 Z" transform="translate(2 2)"/>
</svg>
