<svg xmlns="http://www.w3.org/2000/svg" xmlns:xlink="http://www.w3.org/1999/xlink" viewBox="0 0 64.38 64.16"><defs><style>.cls-1,.cls-2{fill:none;stroke-miterlimit:10;stroke-width:4px;}.cls-1{stroke:url(#Nieuwe_verloopstaal_2);}.cls-2{stroke:url(#Nieuwe_verloopstaal_2-2);}</style><linearGradient id="Nieuwe_verloopstaal_2" x1="13.07" y1="19.12" x2="51.31" y2="19.12" gradientUnits="userSpaceOnUse"><stop offset="0" stop-color="#e54216"/><stop offset="0.47" stop-color="#e8620c"/><stop offset="1" stop-color="#f59b0b"/></linearGradient><linearGradient id="Nieuwe_verloopstaal_2-2" x1="0" y1="45.79" x2="64.38" y2="45.79" xlink:href="#Nieuwe_verloopstaal_2"/></defs><title>user</title><g id="Laag_2" data-name="Laag 2"><g id="Laag_1-2" data-name="Laag 1"><g id="Icon"><path class="cls-1" d="M45.63,29.71a17.12,17.12,0,1,0-26.88,0,17.74,17.74,0,0,0,13.44,6.53A17.74,17.74,0,0,0,45.63,29.71Z"/><path class="cls-2" d="M45.63,29.71a17.1,17.1,0,0,1-26.88,0C8.82,32.51,2,38.32,2,45,2,54.5,15.52,62.16,32.19,62.16S62.38,54.5,62.38,45C62.38,38.32,55.55,32.51,45.63,29.71Z"/></g></g></g></svg>