<svg xmlns="http://www.w3.org/2000/svg" xmlns:xlink="http://www.w3.org/1999/xlink" viewBox="0 0 66.33 62.52"><defs><style>.cls-1{fill:#ededed;}.cls-2{stroke-miterlimit:10;stroke-width:3px;fill:url(#Nieuw_verloopstaal_1);stroke:url(#Nieuw_verloopstaal_1-2);}.cls-3{fill:url(#Naamloos_verloop_47);}</style><linearGradient id="Nieuw_verloopstaal_1" x1="14.4" y1="31.26" x2="51.93" y2="31.26" gradientUnits="userSpaceOnUse"><stop offset="0" stop-color="#7d4a98"/><stop offset="0.47" stop-color="#b74b96"/><stop offset="1" stop-color="#6171b5"/></linearGradient><linearGradient id="Nieuw_verloopstaal_1-2" x1="12.9" y1="31.26" x2="53.43" y2="31.26" xlink:href="#Nieuw_verloopstaal_1"/><linearGradient id="Naamloos_verloop_47" x1="33.14" y1="64.47" x2="33.18" y2="-1.86" gradientUnits="userSpaceOnUse"><stop offset="0" stop-color="#fff"/><stop offset="0.27" stop-color="#fff" stop-opacity="0.5"/><stop offset="0.62" stop-color="#fff" stop-opacity="0"/></linearGradient></defs><title>app-logo</title><g id="Laag_2" data-name="Laag 2"><g id="Laag_1-2" data-name="Laag 1"><g id="Logo"><rect class="cls-1" x="1.91" width="62.52" height="62.52" rx="12"/><path class="cls-2" d="M47.52,10.92Q43.11,6.6,34.8,6.6H14.4V49.5a6.4,6.4,0,0,0,6.4,6.41h0a6.41,6.41,0,0,0,6.41-6.41V39.56H34.8q8.31,0,12.72-4.31t4.41-12.17Q51.93,15.24,47.52,10.92ZM43.7,28l-9.76,7.62L24,28a7.69,7.69,0,0,1-3.08-7.9,7.82,7.82,0,0,1,6.11-6,7.93,7.93,0,0,1,6.81,1.84,7.91,7.91,0,0,1,6.83-1.85,7.78,7.78,0,0,1,6.12,6A7.69,7.69,0,0,1,43.7,28Z"/><path class="cls-3" d="M0,24.18c7.15,5.41,18.58,12.08,32.92,12.16,14.59.07,26.21-6.71,33.41-12.16"/></g></g></g></svg>