<svg xmlns="http://www.w3.org/2000/svg" xmlns:xlink="http://www.w3.org/1999/xlink" viewBox="0 0 62.52 62.52"><defs><style>.cls-1{fill:url(#Nieuwe_verloopstaal_1);}.cls-2{opacity:0.6;}.cls-3{fill:#fff;stroke:#fff;stroke-miterlimit:10;stroke-width:3px;}</style><linearGradient id="Nieuwe_verloopstaal_1" x1="1.15" y1="61.37" x2="61.37" y2="1.15" gradientUnits="userSpaceOnUse"><stop offset="0" stop-color="#e54216"/><stop offset="0.47" stop-color="#e8620c"/><stop offset="1" stop-color="#f59b0b"/></linearGradient></defs><title>Favicon</title><g id="Laag_2" data-name="Laag 2"><g id="Laag_1-2" data-name="Laag 1"><g id="Logo"><rect class="cls-1" width="62.52" height="62.52" rx="3.91"/><g class="cls-2"><path class="cls-3" d="M45.61,10.92Q41.2,6.6,32.89,6.6H12.49V49.5a6.41,6.41,0,0,0,6.41,6.41h0a6.41,6.41,0,0,0,6.41-6.41V39.56h7.58q8.31,0,12.72-4.31T50,23.08Q50,15.24,45.61,10.92ZM41.79,28,32,35.59,22.11,28A7.69,7.69,0,0,1,19,20.06a7.82,7.82,0,0,1,6.11-6A8,8,0,0,1,32,15.92a7.89,7.89,0,0,1,6.82-1.85,7.78,7.78,0,0,1,6.12,6A7.69,7.69,0,0,1,41.79,28Z"/></g></g></g></g></svg>