<svg xmlns="http://www.w3.org/2000/svg" xmlns:xlink="http://www.w3.org/1999/xlink" viewBox="0 0 40.54 52.31"><defs><style>.cls-1{stroke-miterlimit:10;stroke-width:3px;fill:url(#Nieuw_verloopstaal_1);stroke:url(#Nieuw_verloopstaal_1-2);}</style><linearGradient id="Nieuw_verloopstaal_1" x1="1.5" y1="26.15" x2="39.04" y2="26.15" gradientUnits="userSpaceOnUse"><stop offset="0" stop-color="#7d4a98"/><stop offset="0.47" stop-color="#b74b96"/><stop offset="1" stop-color="#6171b5"/></linearGradient><linearGradient id="Nieuw_verloopstaal_1-2" x1="0" y1="26.15" x2="40.54" y2="26.15" xlink:href="#Nieuw_verloopstaal_1"/></defs><title>logo</title><g id="Laag_2" data-name="Laag 2"><g id="Laag_1-2" data-name="Laag 1"><g id="Logo"><path class="cls-1" d="M34.62,5.82Q30.21,1.5,21.9,1.5H1.5V44.4a6.41,6.41,0,0,0,6.41,6.41h0a6.41,6.41,0,0,0,6.41-6.41V34.46H21.9q8.31,0,12.72-4.32T39,18Q39,10.14,34.62,5.82ZM30.8,22.87l-9.75,7.62-9.93-7.64A7.65,7.65,0,0,1,8.05,15a7.79,7.79,0,0,1,6.1-6A8,8,0,0,1,21,10.82,7.89,7.89,0,0,1,27.79,9a7.79,7.79,0,0,1,6.12,6A7.71,7.71,0,0,1,30.8,22.87Z"/></g></g></g></svg>