<svg xmlns="http://www.w3.org/2000/svg" xmlns:xlink="http://www.w3.org/1999/xlink" viewBox="0 0 204.5 41.79"><defs><style>.cls-1{opacity:0.82;}.cls-2{fill:url(#Naamloos_verloop_29);}.cls-3{fill:url(#Naamloos_verloop_29-2);}.cls-4{fill:url(#Naamloos_verloop_29-3);}.cls-5{fill:url(#Naamloos_verloop_29-4);}.cls-6{fill:url(#Naamloos_verloop_29-5);}.cls-7{fill:url(#Naamloos_verloop_29-6);}.cls-8{fill:url(#Naamloos_verloop_29-7);}</style><linearGradient id="Naamloos_verloop_29" x1="68.38" y1="26.49" x2="149.66" y2="28.66" gradientUnits="userSpaceOnUse"><stop offset="0" stop-color="#7c4997"/><stop offset="0.29" stop-color="#b74a95"/><stop offset="0.52" stop-color="#6171b4"/><stop offset="0.75" stop-color="#435ca7"/><stop offset="1" stop-color="#4cbed2"/></linearGradient><linearGradient id="Naamloos_verloop_29-2" x1="68.56" y1="19.79" x2="149.84" y2="21.96" xlink:href="#Naamloos_verloop_29"/><linearGradient id="Naamloos_verloop_29-3" x1="68.57" y1="19.66" x2="149.85" y2="21.82" xlink:href="#Naamloos_verloop_29"/><linearGradient id="Naamloos_verloop_29-4" x1="68.56" y1="19.76" x2="149.84" y2="21.93" xlink:href="#Naamloos_verloop_29"/><linearGradient id="Naamloos_verloop_29-5" x1="68.69" y1="15.14" x2="149.97" y2="17.3" xlink:href="#Naamloos_verloop_29"/><linearGradient id="Naamloos_verloop_29-6" x1="68.7" y1="14.71" x2="149.98" y2="16.88" xlink:href="#Naamloos_verloop_29"/><linearGradient id="Naamloos_verloop_29-7" x1="68.82" y1="10.3" x2="150.1" y2="12.46" xlink:href="#Naamloos_verloop_29"/></defs><title>Summeet</title><g id="Laag_2" data-name="Laag 2"><g id="Laag_1-2" data-name="Laag 1"><g class="cls-1"><path class="cls-2" d="M25.05,8.36A6.47,6.47,0,0,1,27.44,9a2.47,2.47,0,0,1,.88.76,1.8,1.8,0,0,1,.36,1.08q0,2.47-2.76,4.93a14.8,14.8,0,0,1-2.61,1.85,12.25,12.25,0,0,1-2.85,1.17.9.9,0,0,1-.59,0,.75.75,0,0,1-.39-.35,1.28,1.28,0,0,1-.13-.5.72.72,0,0,1,.16-.49.89.89,0,0,1,.5-.32,10.78,10.78,0,0,0,2.47-1,13.12,13.12,0,0,0,2.28-1.61,8.28,8.28,0,0,0,1.59-1.89,3.37,3.37,0,0,0,.59-1.75.2.2,0,0,0-.05-.14,2,2,0,0,0-.28-.18,4.78,4.78,0,0,0-1.74-.42,19.32,19.32,0,0,0-6,.5,18.69,18.69,0,0,0-6,2.25c-1.63,1-2.44,2.09-2.44,3.21a1.19,1.19,0,0,0,.12.56,1.8,1.8,0,0,0,.42.49,6.06,6.06,0,0,0,2,1c.41.14.91.29,1.5.44l1.49.35,1.92.39,1.78.35q2.3.46,4,1a17.12,17.12,0,0,1,3.06,1.21l.48.29.42.22.43.19a2.39,2.39,0,0,1,.4.12,1,1,0,0,0,.46.06l.49,0a2.47,2.47,0,0,0,.6-.08l.66-.19q.38-.11.81-.27,7-2.22,13.17-3.59A58.21,58.21,0,0,1,55.25,17a.89.89,0,0,1,.56.15.77.77,0,0,1,.29.43,1.25,1.25,0,0,1,0,.51.66.66,0,0,1-.26.44.89.89,0,0,1-.55.21A57.27,57.27,0,0,0,45,20.24c-4.09.89-8.42,2.08-13,3.54a4.28,4.28,0,0,0-.51.18,3.15,3.15,0,0,0-.41.2.84.84,0,0,0-.31.25c-.09.09-.16.18-.22.25a.69.69,0,0,0-.14.31,1.93,1.93,0,0,0-.08.33,1.49,1.49,0,0,0-.05.37c0,.17,0,.3,0,.41v1c0,2.25-1.61,4.57-4.82,6.93a41.09,41.09,0,0,1-10,5.25,38.38,38.38,0,0,1-10,2.53,9.36,9.36,0,0,1-3.6-.3,3,3,0,0,1-1.28-.83A2.24,2.24,0,0,1,0,39.13a3.11,3.11,0,0,1,.5-1.65A8.14,8.14,0,0,1,2,35.79a27.92,27.92,0,0,1,4.68-3.32,105.49,105.49,0,0,1,15-6.94l1.93-.75c1-.45,1.53-.85,1.52-1.2s-.58-.81-1.75-1.28c-1-.31-2.37-.64-4-1L17.56,21l-1.92-.38c-.43-.09-1-.21-1.58-.37s-1.18-.32-1.64-.48A7.37,7.37,0,0,1,9.9,18.42a3,3,0,0,1-1.17-2.37q0-2.66,3.25-4.68A20.39,20.39,0,0,1,18.52,8.9a23.53,23.53,0,0,1,5.06-.61C24.1,8.29,24.59,8.32,25.05,8.36Zm.16,17.81c-.75.21-1.73.54-2.95,1A102.59,102.59,0,0,0,7.52,34a25.9,25.9,0,0,0-4.39,3.1,6.59,6.59,0,0,0-1,1.2,1.93,1.93,0,0,0-.35.86.53.53,0,0,0,.12.37,1.19,1.19,0,0,0,.52.31A7.47,7.47,0,0,0,5.27,40a26.26,26.26,0,0,0,4.41-.78,49.86,49.86,0,0,0,5.15-1.63,50.38,50.38,0,0,0,5.22-2.33,32.47,32.47,0,0,0,4.39-2.68,14.27,14.27,0,0,0,3-2.89A4.5,4.5,0,0,0,28.54,27c-.08-.78-.57-1.17-1.45-1.18A7.08,7.08,0,0,0,25.21,26.17Z"/><path class="cls-3" d="M62.35,16.42a.77.77,0,0,1,0,.84c-.75,1.29-.9,2.27-.47,2.91a1.7,1.7,0,0,0,.76.61,3.1,3.1,0,0,0,1.15.22,11.61,11.61,0,0,0,4.63-1.1,13,13,0,0,0,4-2.64A.92.92,0,0,1,73,17a.72.72,0,0,1,.5.11,1.23,1.23,0,0,1,.36.36A.78.78,0,0,1,74,18a.85.85,0,0,1-.27.52,14.94,14.94,0,0,1-4.56,3,13.06,13.06,0,0,1-5.33,1.21,4.63,4.63,0,0,1-1.93-.4,3.27,3.27,0,0,1-1.44-1.21c-.19-.38-.44-.44-.76-.16a5.62,5.62,0,0,1-3.9,2.11,2.54,2.54,0,0,1-1.66-.57,2.44,2.44,0,0,1-.92-1.45,3.31,3.31,0,0,1,.2-1.89,5.6,5.6,0,0,1,1.3-1.91A.86.86,0,0,1,55.2,17a.71.71,0,0,1,.5.11,1.16,1.16,0,0,1,.37.36.67.67,0,0,1,.11.51.91.91,0,0,1-.27.52A3.69,3.69,0,0,0,55,19.73a1.69,1.69,0,0,0-.13,1,.72.72,0,0,0,.26.49,1,1,0,0,0,.61.15A2.41,2.41,0,0,0,57,20.93a6.53,6.53,0,0,0,1.42-1.16,17.6,17.6,0,0,0,2.43-3.37.85.85,0,0,1,.74-.43h0A.86.86,0,0,1,62.35,16.42Z"/><path class="cls-4" d="M78.27,17a9,9,0,0,1,.61,1.09,4.62,4.62,0,0,0,.47.78q.09.12.12.12a.41.41,0,0,0,.15-.07c.08-.05.19-.14.34-.26a4.16,4.16,0,0,0,.42-.42,11.28,11.28,0,0,1,.83-.78A2.06,2.06,0,0,1,82.5,17a2.11,2.11,0,0,1,1.06.26,5.91,5.91,0,0,1,1,.75c.21.19.52.48.92.87s.72.7.94.89a10.89,10.89,0,0,0,2.44,1.7,6.39,6.39,0,0,0,2.91.62A9.24,9.24,0,0,0,94,21.71a20.64,20.64,0,0,0,2.89-1,18.15,18.15,0,0,0,2.89-1.58,8,8,0,0,0,2-1.77.73.73,0,0,1,.31-.26.91.91,0,0,1,.4-.1.84.84,0,0,1,.61.25.83.83,0,0,1,.25.62.92.92,0,0,1-.17.52A13.46,13.46,0,0,1,97.6,22.3a15,15,0,0,1-5.79,1.53,8.51,8.51,0,0,1-2-.24,8,8,0,0,1-1.8-.66,12,12,0,0,1-1.43-.86,12.3,12.3,0,0,1-1.25-1c-.25-.23-.58-.54-1-.94s-.69-.66-.85-.8a2,2,0,0,0-1-.58l-.09,0-.14.09a6.85,6.85,0,0,0-.62.62,1,1,0,0,0-.19.19,2.55,2.55,0,0,0-.21.23l-.21.2-.26.21-.27.17a1.44,1.44,0,0,1-.31.15,2.44,2.44,0,0,1-.34.08,1.72,1.72,0,0,1-.39,0A1.81,1.81,0,0,1,78,20a5.81,5.81,0,0,1-.68-1.11,7.43,7.43,0,0,0-.46-.82.1.1,0,0,1,0,0l0,0a2.39,2.39,0,0,0-.69.38,8.69,8.69,0,0,0-1.35,1.25,20.19,20.19,0,0,0-2.43,3.31.85.85,0,0,1-.32.3.8.8,0,0,1-.43.13.82.82,0,0,1-.61-.25.84.84,0,0,1-.25-.62.92.92,0,0,1,0-.29l1.65-4.63a.86.86,0,0,1,.33-.41.8.8,0,0,1,.5-.17.84.84,0,0,1,.61.25.83.83,0,0,1,.25.62h0c.54-.51.86-.81,1-.9a3,3,0,0,1,1.79-.73A1.72,1.72,0,0,1,78.27,17Z"/><path class="cls-5" d="M116.31,2.73a.82.82,0,0,1-.06.9,66.56,66.56,0,0,0-5.6,10.3,115.12,115.12,0,0,0-4.54,11.89A36.92,36.92,0,0,0,104.53,33c0,.9.38.91,1.16,0a88.16,88.16,0,0,0,5.55-8.58,88.32,88.32,0,0,1,7.09-9.5,23.54,23.54,0,0,1,3.41-3.21A5.85,5.85,0,0,1,125,10.37a1.06,1.06,0,0,1,.64.24,1.18,1.18,0,0,1,.43.51,1.9,1.9,0,0,1,.1.89,11.13,11.13,0,0,1-.42,2.09c-.11.37-.24.81-.4,1.32s-.31,1-.44,1.36l-.52,1.59-.51,1.52a44.36,44.36,0,0,0-1.58,5.64,1.14,1.14,0,0,0,.11.6c.16.24.63,0,1.41-.71l2-2.09c.93-1,1.63-1.74,2.11-2.24a57.82,57.82,0,0,1,4.61-4.41A17.79,17.79,0,0,1,134.8,15a3.93,3.93,0,0,1,1.91-.54,1.4,1.4,0,0,1,.55.12,1.22,1.22,0,0,1,.45.34,1.43,1.43,0,0,1,.32.9,5.31,5.31,0,0,1-.29,1.64c-.11.38-.33,1-.66,2s-.57,1.66-.72,2.16a8,8,0,0,0-.48,3.68,1.3,1.3,0,0,0,.5.84,2.51,2.51,0,0,0,1.48.35,6.52,6.52,0,0,0,2.51-.86,26.63,26.63,0,0,0,3.55-2.24A62.81,62.81,0,0,0,151,17.26a.86.86,0,0,1,.52-.26.72.72,0,0,1,.51.11,1,1,0,0,1,.36.36.72.72,0,0,1,.11.51.89.89,0,0,1-.26.52A67.46,67.46,0,0,1,145,24.81a30.3,30.3,0,0,1-4,2.57,7,7,0,0,1-3.15.88,4.12,4.12,0,0,1-2.49-.68,3,3,0,0,1-1.18-1.87,5.32,5.32,0,0,1-.13-1.08,8.12,8.12,0,0,1,.09-1.18c.07-.4.14-.78.23-1.13s.19-.74.32-1.19a14.2,14.2,0,0,0,.73-3.14c0-.94-.58-.92-1.78,0a56.64,56.64,0,0,0-4.46,4.28c-.48.5-1.18,1.25-2.1,2.24s-1.6,1.68-2,2.09c-.64.67-1.15,1.17-1.53,1.49a5.28,5.28,0,0,1-.63.48l-.21.13a1,1,0,0,1-.23.09,1.44,1.44,0,0,1-.37.05,1.51,1.51,0,0,1-1.11-.45,2,2,0,0,1-.48-1,6.17,6.17,0,0,1,.09-2.22,44.56,44.56,0,0,1,1.64-5.88l.51-1.54c.22-.65.39-1.18.52-1.57s.28-.84.43-1.34.28-.92.38-1.28a10.16,10.16,0,0,0,.26-1.21l-.23.06-.25.08-.23.08a1.55,1.55,0,0,0-.28.12l-.27.16-.32.2a21.26,21.26,0,0,0-3.13,3,84.22,84.22,0,0,0-7,9.29q-2.14,3.23-5.94,9.36-1.43,2.32-2,3.12c-.26.41-.47.72-.63.92a3.15,3.15,0,0,1-.27.31,1.24,1.24,0,0,1-.19.16.87.87,0,0,1-.54.19,1.12,1.12,0,0,1-.67-.24,1.37,1.37,0,0,1-.46-.51,3.14,3.14,0,0,1-.24-1.08,13.41,13.41,0,0,1,.24-3c.2-1.22.51-2.63.92-4.23s.9-3.31,1.48-5.13a118.08,118.08,0,0,1,4.63-12.1,68.48,68.48,0,0,1,5.74-10.53.8.8,0,0,1,.7-.4h0A.81.81,0,0,1,116.31,2.73Z"/><path class="cls-6" d="M155.27,13.08a1.69,1.69,0,0,1,.51,1,3.62,3.62,0,0,1-.37,2,3.49,3.49,0,0,1-.47.71,4.82,4.82,0,0,1-.59.55c-.19.15-.38.3-.56.47a3.32,3.32,0,0,0-.41.49.94.94,0,0,0-.12.54,1.43,1.43,0,0,0,.28.68,4,4,0,0,0,3,1,16,16,0,0,0,2.51-.2,22,22,0,0,0,2.21-.48A16.85,16.85,0,0,0,163.3,19q1.11-.49,1.86-.9c.5-.26,1.11-.6,1.82-1a1,1,0,0,1,.58-.12.7.7,0,0,1,.46.23,1.24,1.24,0,0,1,.25.45.79.79,0,0,1,0,.52.85.85,0,0,1-.39.43c-.73.42-1.36.77-1.88,1.05s-1.19.6-2,.95a16.43,16.43,0,0,1-2.27.84,18.54,18.54,0,0,1-2.43.53,16.1,16.1,0,0,1-2.77.23,5.75,5.75,0,0,1-4.2-1.47,4.6,4.6,0,0,1-1.14-1.94,5.45,5.45,0,0,1-.18-2.27,6.93,6.93,0,0,1,.7-2.24,4,4,0,0,1,1.06-1.19,2.28,2.28,0,0,1,1.39-.46A1.61,1.61,0,0,1,155.27,13.08ZM153.2,15.2a2.26,2.26,0,0,0-.17.47c-.06.32,0,.47.13.47s.4-.26.66-.8a2,2,0,0,0,.2-.84A1.37,1.37,0,0,0,153.2,15.2Z"/><path class="cls-7" d="M171.13,13.08a1.69,1.69,0,0,1,.51,1,3.61,3.61,0,0,1-.36,2,3.17,3.17,0,0,1-.48.71,4.16,4.16,0,0,1-.58.55c-.19.15-.38.3-.56.47a2.8,2.8,0,0,0-.41.49.94.94,0,0,0-.12.54,1.43,1.43,0,0,0,.28.68,4,4,0,0,0,3,1,16,16,0,0,0,2.51-.2,22,22,0,0,0,2.21-.48,16.85,16.85,0,0,0,2.07-.77q1.11-.49,1.86-.9c.5-.26,1.11-.6,1.82-1a1,1,0,0,1,.58-.12.66.66,0,0,1,.45.23,1.13,1.13,0,0,1,.26.45.79.79,0,0,1,0,.52.85.85,0,0,1-.39.43c-.73.42-1.36.77-1.88,1.05s-1.19.6-2,.95a16.43,16.43,0,0,1-2.27.84,18.54,18.54,0,0,1-2.43.53,16.1,16.1,0,0,1-2.77.23,5.75,5.75,0,0,1-4.2-1.47A4.6,4.6,0,0,1,167,18.82a5.45,5.45,0,0,1-.18-2.27,6.93,6.93,0,0,1,.7-2.24,4,4,0,0,1,1.06-1.19,2.28,2.28,0,0,1,1.39-.46A1.57,1.57,0,0,1,171.13,13.08Zm-2.07,2.12a2.18,2.18,0,0,0-.16.47c-.06.32,0,.47.13.47s.4-.26.66-.8a2.2,2.2,0,0,0,.2-.84A1.41,1.41,0,0,0,169.06,15.2Z"/><path class="cls-8" d="M194.64.14a1.36,1.36,0,0,1,.51.4,1.62,1.62,0,0,1,.27,1.09,6.53,6.53,0,0,1-.71,2.15,32.46,32.46,0,0,1-1.69,3l-.48.79a2.74,2.74,0,0,0-.26.55.59.59,0,0,0-.05.39.46.46,0,0,0,.23.2,1.2,1.2,0,0,0,.51.07c.22,0,.51,0,.86-.08l2.52-.16h0a.84.84,0,0,1,.69.28.87.87,0,0,1-.2,1.32l-1.4.87a.83.83,0,0,1-.82.07.86.86,0,0,1-.52-.66l-1.92.12-.63.05a3.2,3.2,0,0,0-.49.07l-.37.06a.94.94,0,0,0-.3.12l-.25.16a3,3,0,0,0-.23.24c-.12.15-.2.25-.23.3s-.13.2-.29.43l-.36.51q-1.17,1.57-2.25,2.91c-.68.85-1.26,1.55-1.75,2.08a7.1,7.1,0,0,0-.55.66,2.88,2.88,0,0,0-.34.68,6,6,0,0,0-.18.65,2.93,2.93,0,0,0,0,.76c0,.32,0,.6.06.83s.06.58.12,1a3.87,3.87,0,0,0,1.59,2.37,7.05,7.05,0,0,0,3.95.95,16.31,16.31,0,0,0,2.93-.25,14.34,14.34,0,0,0,2.52-.68,13.31,13.31,0,0,0,2.15-1,13.93,13.93,0,0,0,1.8-1.3,14.35,14.35,0,0,0,1.51-1.51,17.15,17.15,0,0,0,1.25-1.58c.34-.5.68-1,1-1.62a.85.85,0,0,1,.43-.39.78.78,0,0,1,.52,0,1.24,1.24,0,0,1,.45.25.68.68,0,0,1,.23.46,1.11,1.11,0,0,1-.11.58c-.36.61-.73,1.19-1.12,1.75a17.6,17.6,0,0,1-1.39,1.74,16.81,16.81,0,0,1-1.7,1.68,16.07,16.07,0,0,1-2,1.45,14.53,14.53,0,0,1-2.41,1.18,16.8,16.8,0,0,1-2.79.77,18.84,18.84,0,0,1-3.23.28,8.73,8.73,0,0,1-4.91-1.23,5.54,5.54,0,0,1-2.32-3.39,10.9,10.9,0,0,1,.07-4.78.79.79,0,0,1,.08-.26,24.14,24.14,0,0,1,1.29-4.24s0-.1.07-.18c.4-.9.49-1.45.26-1.62a6.77,6.77,0,0,0-2.78-.19.8.8,0,0,1-.58-.13.75.75,0,0,1-.31-.42,1.51,1.51,0,0,1,0-.52.7.7,0,0,1,.26-.45.87.87,0,0,1,.55-.21l2-.14a6.13,6.13,0,0,0,1.2-.11,3.78,3.78,0,0,0,.88-.29,2.13,2.13,0,0,0,.68-.52,4.32,4.32,0,0,0,.54-.65c.14-.2.32-.49.53-.85.59-.94,1.19-1.83,1.81-2.65a23.37,23.37,0,0,1,2.61-3c.34-.31.61-.55.8-.7a3.7,3.7,0,0,1,.73-.43A2.17,2.17,0,0,1,194,0,1.6,1.6,0,0,1,194.64.14Zm-7.43,11.07q-.63.06-1.08,1.11a4.71,4.71,0,0,0-.34,1c0,.34.19.24.7-.32a10.59,10.59,0,0,0,.83-1.28c.18-.34.18-.51,0-.5Zm6.1-9-.14.08-.15.12-.24.2a19.9,19.9,0,0,0-2.4,2.76l-.09.12q-2.55,3.28-1.58,3.29a1.35,1.35,0,0,0,.29,0l.24-.07a.69.69,0,0,0,.22-.12,1.35,1.35,0,0,1,.21-.13,1.59,1.59,0,0,0,.2-.19,2.23,2.23,0,0,1,.18-.2s.1-.13.19-.25l.19-.26s.11-.14.22-.29.18-.26.23-.31A37.83,37.83,0,0,0,193.14,3a8.11,8.11,0,0,0,.31-.88Z"/></g></g></g></svg>