<svg xmlns="http://www.w3.org/2000/svg" viewBox="0 0 64.37 64.38"><defs><style>.cls-1{fill:none;stroke:#2d2d2d;stroke-miterlimit:10;stroke-width:4px;}</style></defs><title>settings</title><g id="Laag_2" data-name="Laag 2"><g id="Laag_1-2" data-name="Laag 1"><path class="cls-1" d="M62.37,28.5v7.39a3.45,3.45,0,0,1-3.45,3.45h-5a20.52,20.52,0,0,1-1.31,3.17l3.54,3.54a3.45,3.45,0,0,1,0,4.88l-5.22,5.22a3.45,3.45,0,0,1-4.88,0L42.5,52.61a20.52,20.52,0,0,1-3.17,1.31v5a3.44,3.44,0,0,1-3.45,3.45H28.49A3.45,3.45,0,0,1,25,58.93v-5a20.52,20.52,0,0,1-3.17-1.31l-3.54,3.54a3.45,3.45,0,0,1-4.88,0L8.23,50.93a3.45,3.45,0,0,1,0-4.88l3.54-3.54a20.52,20.52,0,0,1-1.31-3.17h-5A3.45,3.45,0,0,1,2,35.89V28.5a3.44,3.44,0,0,1,3.45-3.45h5a20.52,20.52,0,0,1,1.31-3.17L8.23,18.34a3.45,3.45,0,0,1,0-4.88l5.22-5.23a3.46,3.46,0,0,1,4.88,0l3.55,3.55A20.82,20.82,0,0,1,25,10.47v-5A3.46,3.46,0,0,1,28.49,2h7.39a3.45,3.45,0,0,1,3.45,3.45v5a20.82,20.82,0,0,1,3.16,1.31L46,8.23a3.46,3.46,0,0,1,4.88,0l5.22,5.23a3.45,3.45,0,0,1,0,4.88L52.6,21.88a20.52,20.52,0,0,1,1.31,3.17h5A3.44,3.44,0,0,1,62.37,28.5Z"/><circle class="cls-1" cx="32.19" cy="32.19" r="10.78"/></g></g></svg>